<svg width="24" height="24" viewBox="0 0 24 24" fill="none" xmlns="http://www.w3.org/2000/svg">
<path d="M20.2071 5.20711C20.5976 4.81658 20.5976 4.18342 20.2071 3.79289C19.8166 3.40237 19.1834 3.40237 18.7929 3.79289L5.5 17.0858V8.25C5.5 7.69772 5.05228 7.25 4.5 7.25C3.94772 7.25 3.5 7.69772 3.5 8.25V19.5C3.5 19.7652 3.60536 20.0196 3.79289 20.2071C3.81634 20.2305 3.84082 20.2527 3.86624 20.2735C4.04419 20.4193 4.26794 20.5 4.5 20.5L15.75 20.5C16.3023 20.5 16.75 20.0523 16.75 19.5C16.75 18.9477 16.3023 18.5 15.75 18.5L6.91421 18.5L20.2071 5.20711Z" fill="black"/>
</svg>
