<svg width="24" height="24" viewBox="0 0 24 24" fill="none" xmlns="http://www.w3.org/2000/svg">
<path d="M4.45711 3.04289C4.06658 2.65237 3.43342 2.65237 3.04289 3.04289C2.65237 3.43342 2.65237 4.06658 3.04289 4.45711L6.58579 8H4.5C3.94772 8 3.5 8.44772 3.5 9C3.5 9.55228 3.94772 10 4.5 10L9 10C9.55229 10 10 9.55229 10 9L10 4.5C10 3.94772 9.55229 3.5 9 3.5C8.44772 3.5 8 3.94772 8 4.5V6.58579L4.45711 3.04289Z" fill="black"/>
<path d="M20.9571 4.45711C21.3476 4.06658 21.3476 3.43342 20.9571 3.04289C20.5666 2.65237 19.9334 2.65237 19.5429 3.04289L16 6.58579V4.5C16 3.94772 15.5523 3.5 15 3.5C14.4477 3.5 14 3.94772 14 4.5V9C14 9.55229 14.4477 10 15 10H19.5C20.0523 10 20.5 9.55229 20.5 9C20.5 8.44772 20.0523 8 19.5 8H17.4142L20.9571 4.45711Z" fill="black"/>
<path d="M4.5 14C3.94772 14 3.5 14.4477 3.5 15C3.5 15.5523 3.94772 16 4.5 16H6.58579L3.04289 19.5429C2.99408 19.5917 2.95136 19.6443 2.91475 19.6998C2.65847 20.0879 2.70118 20.6154 3.04289 20.9571C3.43342 21.3476 4.06658 21.3476 4.45711 20.9571L8 17.4142V19.5C8 20.0523 8.44772 20.5 9 20.5C9.55228 20.5 10 20.0523 10 19.5L10 15C10 14.4477 9.55229 14 9 14L4.5 14Z" fill="black"/>
<path d="M15 14C14.4477 14 14 14.4477 14 15L14 19.5C14 20.0523 14.4477 20.5 15 20.5C15.5523 20.5 16 20.0523 16 19.5V17.4142L19.5429 20.9571C19.5917 21.0059 19.6443 21.0486 19.6998 21.0852C20.0879 21.3415 20.6154 21.2988 20.9571 20.9571C21.3476 20.5666 21.3476 19.9334 20.9571 19.5429L17.4142 16H19.5C20.0523 16 20.5 15.5523 20.5 15C20.5 14.4477 20.0523 14 19.5 14H15Z" fill="black"/>
</svg>
