<svg width="24" height="24" viewBox="0 0 24 24" fill="none" xmlns="http://www.w3.org/2000/svg">
<path d="M2.95711 5.29289C2.56658 4.90237 1.93342 4.90237 1.54289 5.29289C1.15237 5.68342 1.15237 6.31658 1.54289 6.70711L8.29289 13.4571C8.34171 13.5059 8.39431 13.5486 8.44976 13.5852C8.83792 13.8415 9.3654 13.7988 9.70711 13.4571L13.3504 9.81377C14.8861 11.1896 16.0522 13.0116 16.626 15.153L16.7776 15.7188L13.357 13.7439C12.8788 13.4678 12.2672 13.6316 11.991 14.1099C11.7149 14.5882 11.8788 15.1998 12.357 15.476L17.8684 18.6579C18.0981 18.7905 18.371 18.8265 18.6272 18.7578C18.8834 18.6892 19.1018 18.5216 19.2344 18.2919L22.4164 12.7806C22.6925 12.3023 22.5287 11.6907 22.0504 11.4145C21.5721 11.1384 20.9605 11.3023 20.6843 11.7806L18.7095 15.2011L18.5579 14.6353C17.7848 11.7502 16.0978 9.35088 13.8927 7.66876C13.4945 7.36504 12.9332 7.40263 12.5791 7.75672L9 11.3358L2.95711 5.29289Z" fill="black"/>
</svg>
