<svg width="24" height="24" viewBox="0 0 24 24" fill="none" xmlns="http://www.w3.org/2000/svg">
<path d="M16.278 5.6038C15.7624 5.40588 15.184 5.66341 14.986 6.17901C14.9408 6.29688 14.9194 6.41803 14.9194 6.53717C14.9192 6.93929 15.1634 7.31852 15.5613 7.47123L19.2483 8.88657L18.7135 9.12468C16.3251 10.1881 14.414 11.8848 13.0917 13.9282L9.70711 10.5436C9.51957 10.356 9.26522 10.2507 9 10.2507C8.73478 10.2507 8.48043 10.356 8.29289 10.5436L1.54289 17.2936C1.3476 17.4889 1.24997 17.7449 1.25 18.0008C1.24997 18.2568 1.3476 18.5128 1.54289 18.7081C1.93342 19.0986 2.56658 19.0986 2.95711 18.7081L9 12.6652L12.5993 16.2645C12.8258 16.491 13.147 16.5953 13.4634 16.545C13.7797 16.4947 14.0528 16.296 14.1979 16.0105C15.3014 13.8392 17.1281 12.0201 19.527 10.952L20.062 10.7138L18.6467 14.4009C18.6014 14.5188 18.58 14.6399 18.58 14.7591C18.5799 15.1612 18.8241 15.5404 19.2219 15.6931C19.7375 15.8911 20.3159 15.6335 20.5138 15.1179L22.7945 9.17666C22.8397 9.05879 22.8612 8.93764 22.8612 8.8185C22.8613 8.41638 22.6171 8.03715 22.2193 7.88444L16.278 5.6038Z" fill="black"/>
</svg>
