<svg width="24" height="24" viewBox="0 0 24 24" fill="none" xmlns="http://www.w3.org/2000/svg">
<path d="M3.75 5.75C3.19772 5.75 2.75 6.19772 2.75 6.75C2.75 7.30228 3.19772 7.75 3.75 7.75H20.25C20.8023 7.75 21.25 7.30228 21.25 6.75C21.25 6.19772 20.8023 5.75 20.25 5.75H3.75Z" fill="black"/>
<path d="M3.75 11C3.19772 11 2.75 11.4477 2.75 12C2.75 12.5523 3.19772 13 3.75 13H20.25C20.8023 13 21.25 12.5523 21.25 12C21.25 11.4477 20.8023 11 20.25 11H3.75Z" fill="black"/>
<path d="M3.75 16.25C3.19772 16.25 2.75 16.6977 2.75 17.25C2.75 17.8023 3.19772 18.25 3.75 18.25H20.25C20.8023 18.25 21.25 17.8023 21.25 17.25C21.25 16.6977 20.8023 16.25 20.25 16.25H3.75Z" fill="black"/>
</svg>
