<svg width="24" height="24" viewBox="0 0 24 24" fill="none" xmlns="http://www.w3.org/2000/svg">
<path fill-rule="evenodd" clip-rule="evenodd" d="M12 2.25C12.4142 2.25 12.75 2.58579 12.75 3V4.28138C14.9755 4.472 16.4713 5.50984 17.4087 6.81177C18.4202 8.21665 18.75 9.87998 18.75 11V14.6893L20.5304 16.4697C20.7449 16.6842 20.809 17.0068 20.6929 17.287C20.5768 17.5673 20.3034 17.75 20 17.75H15.75V18C15.75 18.62 15.5702 19.5333 15.0087 20.3132C14.4196 21.1314 13.4445 21.75 12 21.75C10.5556 21.75 9.58042 21.1314 8.99137 20.3132C8.42986 19.5333 8.25002 18.62 8.25002 18V17.75H4.00002C3.69668 17.75 3.4232 17.5673 3.30711 17.287C3.19103 17.0068 3.25519 16.6842 3.46969 16.4697L5.25002 14.6893V11C5.25002 8.35556 6.36867 6.6304 7.81179 5.59135C8.92882 4.78709 10.2092 4.41378 11.25 4.29457V3C11.25 2.58579 11.5858 2.25 12 2.25ZM9.75002 17.75V18C9.75002 18.38 9.87019 18.9667 10.2087 19.4368C10.5196 19.8686 11.0445 20.25 12 20.25C12.9556 20.25 13.4804 19.8686 13.7914 19.4368C14.1299 18.9667 14.25 18.38 14.25 18V17.75H9.75002ZM8.68825 6.80865C7.63137 7.5696 6.75002 8.84444 6.75002 11V15C6.75002 15.1989 6.671 15.3897 6.53035 15.5303L5.81068 16.25H18.1894L17.4697 15.5303C17.329 15.3897 17.25 15.1989 17.25 15V11C17.25 10.12 16.9799 8.78335 16.1914 7.68823C15.4304 6.63135 14.1556 5.75 12 5.75C11.12 5.75 9.78337 6.02016 8.68825 6.80865Z" fill="black"/>
</svg>
