<svg width="24" height="24" viewBox="0 0 24 24" fill="none" xmlns="http://www.w3.org/2000/svg">
<path fill-rule="evenodd" clip-rule="evenodd" d="M4.25 5C4.25 3.48122 5.48122 2.25 7 2.25H17C18.5188 2.25 19.75 3.48122 19.75 5V20.1384C19.75 21.0982 18.7131 21.6999 17.8798 21.2237L12.6202 18.2182C12.2359 17.9986 11.7641 17.9986 11.3798 18.2182L6.12017 21.2237C5.28685 21.6999 4.25 21.0982 4.25 20.1384V5ZM7 3.75C6.30964 3.75 5.75 4.30964 5.75 5V19.7076L10.6356 16.9158C11.4811 16.4327 12.5189 16.4327 13.3644 16.9158L18.25 19.7076V5C18.25 4.30964 17.6904 3.75 17 3.75H7Z" fill="black"/>
</svg>
