<svg width="24" height="24" viewBox="0 0 24 24" fill="none" xmlns="http://www.w3.org/2000/svg">
<path fill-rule="evenodd" clip-rule="evenodd" d="M5.37863 3.75C5.17971 3.75 4.98895 3.82902 4.8483 3.96967L3.65901 5.15896C2.78033 6.03764 2.78033 7.46226 3.65901 8.34094C3.80236 8.48429 3.95933 8.60361 4.12532 8.69955C4.98601 9.19703 6.10557 9.07635 6.84099 8.34094C6.87469 8.30724 6.90704 8.27281 6.93805 8.23771C7.08046 8.07654 7.2852 7.98427 7.50027 7.98432C7.71534 7.98438 7.92004 8.07676 8.06236 8.238C8.47574 8.70631 9.07812 8.99986 9.75 8.99986C10.4219 8.99986 11.0243 8.70628 11.4377 8.23793C11.5801 8.07662 11.7849 7.98423 12 7.98423C12.2151 7.98423 12.4199 8.07662 12.5623 8.23793C12.9757 8.70628 13.5781 8.99986 14.25 8.99986C14.9218 8.99986 15.5242 8.70635 15.9376 8.23808C16.0799 8.07686 16.2846 7.98449 16.4996 7.98443C16.7147 7.98437 16.9194 8.07663 17.0618 8.23777C17.0928 8.27284 17.1251 8.30722 17.1587 8.34085C17.8942 9.07632 19.0139 9.19696 19.8746 8.69934C20.0405 8.60342 20.1974 8.48415 20.3407 8.34085C21.2194 7.46217 21.2194 6.03755 20.3407 5.15887L19.1515 3.96967C19.0109 3.82902 18.8201 3.75 18.6212 3.75H5.37863ZM16.4996 9.75035C15.8732 10.2205 15.0939 10.4999 14.25 10.4999C13.4059 10.4999 12.6265 10.2204 12 9.75002C11.3736 10.2204 10.5941 10.4999 9.75 10.4999C8.90601 10.4999 8.12675 10.2205 7.50036 9.75029C6.62479 10.4088 5.5271 10.6332 4.5 10.4244V20.2499H9V13.4999C9 12.6714 9.67157 11.9999 10.5 11.9999H13.5C14.3284 11.9999 15 12.6714 15 13.4999V20.2499H19.5V10.4243C18.4729 10.6331 17.3752 10.4088 16.4996 9.75035ZM21 9.75013C21.1401 9.64483 21.2743 9.52859 21.4014 9.40151C22.8658 7.93704 22.8658 5.56268 21.4014 4.09821L20.2122 2.90901C19.7902 2.48705 19.2179 2.25 18.6212 2.25H5.37863C4.78189 2.25 4.20959 2.48705 3.78764 2.90901L2.59835 4.0983C1.13388 5.56276 1.13388 7.93713 2.59835 9.4016C2.72551 9.52876 2.8598 9.64507 3 9.75042V20.2499H2.36088C1.94666 20.2499 1.61088 20.5856 1.61088 20.9999C1.61088 21.4141 1.94666 21.7499 2.36088 21.7499H21.6391C22.0533 21.7499 22.3891 21.4141 22.3891 20.9999C22.3891 20.5856 22.0533 20.2499 21.6391 20.2499H21V9.75013ZM13.5 20.2499V13.4999H10.5V20.2499H13.5Z" fill="black"/>
</svg>
