<svg width="24" height="24" viewBox="0 0 24 24" fill="none" xmlns="http://www.w3.org/2000/svg">
<path d="M8.75 12.5C8.75 12.0858 8.41421 11.75 8 11.75C7.58579 11.75 7.25 12.0858 7.25 12.5V17C7.25 17.4142 7.58579 17.75 8 17.75C8.41421 17.75 8.75 17.4142 8.75 17V12.5Z" fill="black"/>
<path d="M12.75 12.5C12.75 12.0858 12.4142 11.75 12 11.75C11.5858 11.75 11.25 12.0858 11.25 12.5V17C11.25 17.4142 11.5858 17.75 12 17.75C12.4142 17.75 12.75 17.4142 12.75 17V12.5Z" fill="black"/>
<path d="M16.75 12.5C16.75 12.0858 16.4142 11.75 16 11.75C15.5858 11.75 15.25 12.0858 15.25 12.5V17C15.25 17.4142 15.5858 17.75 16 17.75C16.4142 17.75 16.75 17.4142 16.75 17V12.5Z" fill="black"/>
<path fill-rule="evenodd" clip-rule="evenodd" d="M7.75 6.5V8.25H4.51024C3.00574 8.25 1.92511 9.69807 2.35329 11.1403L4.91897 19.7826C5.26542 20.9496 6.3379 21.75 7.55525 21.75H16.4452C17.6625 21.75 18.735 20.9496 19.0815 19.7826L21.6472 11.1403C22.0753 9.69807 20.9947 8.25 19.4902 8.25H16.25V6.5C16.25 4.15279 14.3472 2.25 12 2.25C9.65279 2.25 7.75 4.15279 7.75 6.5ZM12 3.75C10.4812 3.75 9.25 4.98122 9.25 6.5V8.25H14.75V6.5C14.75 4.98122 13.5188 3.75 12 3.75ZM4.51024 9.75C4.00874 9.75 3.64853 10.2327 3.79126 10.7134L6.35694 19.3557C6.51442 19.8862 7.00191 20.25 7.55525 20.25H16.4452C16.9985 20.25 17.486 19.8862 17.6435 19.3557L20.2092 10.7134C20.3519 10.2327 19.9917 9.75 19.4902 9.75H4.51024Z" fill="black"/>
</svg>
