<svg width="24" height="24" viewBox="0 0 24 24" fill="none" xmlns="http://www.w3.org/2000/svg">
<path d="M16.1103 9.43599C16.3511 9.09893 16.273 8.63052 15.9359 8.38976C15.5989 8.149 15.1305 8.22707 14.8897 8.56413L11.0293 13.9687L9.03033 11.9697C8.73744 11.6768 8.26256 11.6768 7.96967 11.9697C7.67678 12.2626 7.67678 12.7375 7.96967 13.0304L10.5947 15.6554C10.7506 15.8113 10.9671 15.8907 11.1869 15.8725C11.4066 15.8543 11.6072 15.7404 11.7353 15.561L16.1103 9.43599Z" fill="black"/>
<path fill-rule="evenodd" clip-rule="evenodd" d="M12 2.25C6.61522 2.25 2.25 6.61522 2.25 12C2.25 17.3848 6.61522 21.75 12 21.75C17.3848 21.75 21.75 17.3848 21.75 12C21.75 6.61522 17.3848 2.25 12 2.25ZM3.75 12C3.75 7.44365 7.44365 3.75 12 3.75C16.5563 3.75 20.25 7.44365 20.25 12C20.25 16.5563 16.5563 20.25 12 20.25C7.44365 20.25 3.75 16.5563 3.75 12Z" fill="black"/>
</svg>
