<svg width="24" height="24" viewBox="0 0 24 24" fill="none" xmlns="http://www.w3.org/2000/svg">
<path fill-rule="evenodd" clip-rule="evenodd" d="M11.0794 2.53074C11.6749 2.31918 12.3251 2.31918 12.9206 2.53074L18.9206 4.66232C20.0173 5.05194 20.75 6.08978 20.75 7.25365V12.7803C20.75 15.7753 19.0243 18.5022 16.3177 19.7843L13.1772 21.2719C12.4321 21.6248 11.5679 21.6248 10.8228 21.2719L7.68233 19.7843C4.97567 18.5022 3.25 15.7753 3.25 12.7803V7.25365C3.25 6.08978 3.98268 5.05194 5.0794 4.66232L11.0794 2.53074ZM15.6103 9.43599C15.8511 9.09893 15.773 8.63052 15.4359 8.38976C15.0989 8.149 14.6305 8.22707 14.3897 8.56413L11.1543 13.0937L9.53033 11.4697C9.23744 11.1768 8.76256 11.1768 8.46967 11.4697C8.17678 11.7626 8.17678 12.2375 8.46967 12.5304L10.7197 14.7804C10.8756 14.9363 11.0921 15.0157 11.3119 14.9975C11.5316 14.9793 11.7322 14.8654 11.8603 14.686L15.6103 9.43599Z" fill="black"/>
</svg>
