<svg width="24" height="24" viewBox="0 0 24 24" fill="none" xmlns="http://www.w3.org/2000/svg">
<path fill-rule="evenodd" clip-rule="evenodd" d="M2.5 7C2.5 4.51472 4.51472 2.5 7 2.5H17C19.4853 2.5 21.5 4.51472 21.5 7V17C21.5 19.4853 19.4853 21.5 17 21.5H7C4.51472 21.5 2.5 19.4853 2.5 17V7ZM16.1103 9.43599C16.3511 9.09893 16.273 8.63052 15.9359 8.38976C15.5989 8.149 15.1305 8.22707 14.8897 8.56413L11.0293 13.9687L9.03033 11.9697C8.73744 11.6768 8.26256 11.6768 7.96967 11.9697C7.67678 12.2626 7.67678 12.7375 7.96967 13.0304L10.5947 15.6554C10.7506 15.8113 10.9671 15.8907 11.1869 15.8725C11.4066 15.8543 11.6072 15.7404 11.7353 15.561L16.1103 9.43599Z" fill="black"/>
</svg>
