<svg width="24" height="24" viewBox="0 0 24 24" fill="none" xmlns="http://www.w3.org/2000/svg">
<path d="M15.6103 9.43599C15.8511 9.09893 15.773 8.63052 15.4359 8.38976C15.0989 8.149 14.6305 8.22707 14.3897 8.56413L11.1543 13.0937L9.53033 11.4697C9.23744 11.1768 8.76256 11.1768 8.46967 11.4697C8.17678 11.7626 8.17678 12.2375 8.46967 12.5304L10.7197 14.7804C10.8756 14.9363 11.0921 15.0157 11.3119 14.9975C11.5316 14.9793 11.7322 14.8654 11.8603 14.686L15.6103 9.43599Z" fill="black"/>
<path fill-rule="evenodd" clip-rule="evenodd" d="M12.9206 2.53074C12.3251 2.31918 11.6749 2.31918 11.0794 2.53074L5.0794 4.66232C3.98268 5.05194 3.25 6.08978 3.25 7.25365V12.7803C3.25 15.7753 4.97567 18.5022 7.68233 19.7843L10.8228 21.2719C11.5679 21.6248 12.4321 21.6248 13.1772 21.2719L16.3177 19.7843C19.0243 18.5022 20.75 15.7753 20.75 12.7803V7.25365C20.75 6.08978 20.0173 5.05194 18.9206 4.66232L12.9206 2.53074ZM11.5815 3.94419C11.8522 3.84803 12.1478 3.84803 12.4185 3.94419L18.4185 6.07577C18.917 6.25287 19.25 6.72462 19.25 7.25365V12.7803C19.25 15.1956 17.8583 17.3947 15.6755 18.4287L12.5351 19.9162C12.1964 20.0767 11.8036 20.0767 11.4649 19.9162L8.32446 18.4287C6.14167 17.3947 4.75 15.1956 4.75 12.7803V7.25365C4.75 6.72462 5.08304 6.25287 5.58154 6.07577L11.5815 3.94419Z" fill="black"/>
</svg>
