<svg width="24" height="24" viewBox="0 0 24 24" fill="none" xmlns="http://www.w3.org/2000/svg">
<path d="M20.4909 5.11536C20.4535 4.84113 20.3031 4.58365 20.0547 4.41806C19.5952 4.1117 18.9743 4.23588 18.6679 4.69541L10.3446 17.1805L5.20711 12.043C4.81658 11.6525 4.18342 11.6525 3.79289 12.043C3.59762 12.2383 3.49999 12.4942 3.5 12.7502C3.49999 13.0061 3.59762 13.262 3.79289 13.4573L9.79289 19.4573C10.0047 19.6692 10.3004 19.7749 10.5985 19.7453C10.8967 19.7158 11.1659 19.5542 11.3321 19.3049L20.3321 5.80491C20.4278 5.66128 20.4815 5.50188 20.496 5.34125C20.5029 5.26572 20.5011 5.18992 20.4909 5.11536Z" fill="black"/>
</svg>
