<svg width="24" height="24" viewBox="0 0 24 24" fill="none" xmlns="http://www.w3.org/2000/svg">
<path d="M12.7071 4.54289C12.3166 4.15237 11.6834 4.15237 11.2929 4.54289L3.79289 12.0429C3.40237 12.4334 3.40237 13.0666 3.79289 13.4571C4.18342 13.8476 4.81658 13.8476 5.20711 13.4571L12 6.66421L18.7929 13.4571C19.1834 13.8476 19.8166 13.8476 20.2071 13.4571C20.5976 13.0666 20.5976 12.4334 20.2071 12.0429L12.7071 4.54289Z" fill="black"/>
<path d="M5.20711 19.4571L12 12.6642L18.7929 19.4571C19.1834 19.8476 19.8166 19.8476 20.2071 19.4571C20.5976 19.0666 20.5976 18.4334 20.2071 18.0429L12.7071 10.5429C12.3166 10.1524 11.6834 10.1524 11.2929 10.5429L3.79289 18.0429C3.40237 18.4334 3.40237 19.0666 3.79289 19.4571C4.18342 19.8476 4.81658 19.8476 5.20711 19.4571Z" fill="black"/>
</svg>
