<svg width="24" height="24" viewBox="0 0 24 24" fill="none" xmlns="http://www.w3.org/2000/svg">
<path d="M12.7071 4.54289C12.3166 4.15237 11.6834 4.15237 11.2929 4.54289L7.54289 8.29289C7.15237 8.68342 7.15237 9.31658 7.54289 9.70711C7.93342 10.0976 8.56658 10.0976 8.95711 9.70711L12 6.66421L15.0429 9.70711C15.4334 10.0976 16.0666 10.0976 16.4571 9.70711C16.8476 9.31658 16.8476 8.68342 16.4571 8.29289L12.7071 4.54289Z" fill="black"/>
<path d="M8.95711 14.2929C8.56658 13.9024 7.93342 13.9024 7.54289 14.2929C7.15237 14.6834 7.15237 15.3166 7.54289 15.7071L11.2929 19.4571C11.6834 19.8476 12.3166 19.8476 12.7071 19.4571L16.4571 15.7071C16.8476 15.3166 16.8476 14.6834 16.4571 14.2929C16.0666 13.9024 15.4334 13.9024 15.0429 14.2929L12 17.3358L8.95711 14.2929Z" fill="black"/>
</svg>
