<svg width="24" height="24" viewBox="0 0 24 24" fill="none" xmlns="http://www.w3.org/2000/svg">
<path d="M13.4571 5.20711C13.8476 4.81658 13.8476 4.18342 13.4571 3.79289C13.0666 3.40237 12.4334 3.40237 12.0429 3.79289L4.54289 11.2929C4.15237 11.6834 4.15237 12.3166 4.54289 12.7071L12.0429 20.2071C12.4334 20.5976 13.0666 20.5976 13.4571 20.2071C13.8476 19.8166 13.8476 19.1834 13.4571 18.7929L6.66421 12L13.4571 5.20711Z" fill="black"/>
<path d="M19.4571 5.20711C19.8476 4.81658 19.8476 4.18342 19.4571 3.79289C19.0666 3.40237 18.4334 3.40237 18.0429 3.79289L10.5429 11.2929C10.1524 11.6834 10.1524 12.3166 10.5429 12.7071L18.0429 20.2071C18.4334 20.5976 19.0666 20.5976 19.4571 20.2071C19.8476 19.8166 19.8476 19.1834 19.4571 18.7929L12.6642 12L19.4571 5.20711Z" fill="black"/>
</svg>
