<svg width="24" height="24" viewBox="0 0 24 24" fill="none" xmlns="http://www.w3.org/2000/svg">
<path d="M5.95711 3.79289C5.56658 3.40237 4.93342 3.40237 4.54289 3.79289C4.15237 4.18342 4.15237 4.81658 4.54289 5.20711L11.3358 12L4.54289 18.7929C4.15237 19.1834 4.15237 19.8166 4.54289 20.2071C4.93342 20.5976 5.56658 20.5976 5.95711 20.2071L13.4571 12.7071C13.8476 12.3166 13.8476 11.6834 13.4571 11.2929L5.95711 3.79289Z" fill="black"/>
<path d="M11.9571 3.79289C11.5666 3.40237 10.9334 3.40237 10.5429 3.79289C10.1524 4.18342 10.1524 4.81658 10.5429 5.20711L17.3358 12L10.5429 18.7929C10.1524 19.1834 10.1524 19.8166 10.5429 20.2071C10.9334 20.5976 11.5666 20.5976 11.9571 20.2071L19.4571 12.7071C19.8476 12.3166 19.8476 11.6834 19.4571 11.2929L11.9571 3.79289Z" fill="black"/>
</svg>
