<svg width="24" height="24" viewBox="0 0 24 24" fill="none" xmlns="http://www.w3.org/2000/svg">
<path d="M5.20711 4.54289C4.81658 4.15237 4.18342 4.15237 3.79289 4.54289C3.40237 4.93342 3.40237 5.56658 3.79289 5.95711L11.2929 13.4571C11.6834 13.8476 12.3166 13.8476 12.7071 13.4571L20.2071 5.95711C20.5976 5.56658 20.5976 4.93342 20.2071 4.54289C19.8166 4.15237 19.1834 4.15237 18.7929 4.54289L12 11.3358L5.20711 4.54289Z" fill="black"/>
<path d="M20.2071 11.9571C20.5976 11.5666 20.5976 10.9334 20.2071 10.5429C19.8166 10.1524 19.1834 10.1524 18.7929 10.5429L12 17.3358L5.20711 10.5429C4.81658 10.1524 4.18342 10.1524 3.79289 10.5429C3.40237 10.9334 3.40237 11.5666 3.79289 11.9571L11.2929 19.4571C11.6834 19.8476 12.3166 19.8476 12.7071 19.4571L20.2071 11.9571Z" fill="black"/>
</svg>
