<svg width="24" height="24" viewBox="0 0 24 24" fill="none" xmlns="http://www.w3.org/2000/svg">
<path fill-rule="evenodd" clip-rule="evenodd" d="M4.75 3.25C3.92157 3.25 3.25 3.92157 3.25 4.75V11.25C3.25 12.0784 3.92157 12.75 4.75 12.75H9.75C10.5784 12.75 11.25 12.0784 11.25 11.25V4.75C11.25 3.92157 10.5784 3.25 9.75 3.25H4.75ZM4.75 4.75H9.75V11.25H4.75V4.75Z" fill="black"/>
<path fill-rule="evenodd" clip-rule="evenodd" d="M4.75 14.25C3.92157 14.25 3.25 14.9216 3.25 15.75V19.25C3.25 20.0784 3.92157 20.75 4.75 20.75H9.75C10.5784 20.75 11.25 20.0784 11.25 19.25V15.75C11.25 14.9216 10.5784 14.25 9.75 14.25H4.75ZM4.75 15.75H9.75V19.25H4.75V15.75Z" fill="black"/>
<path fill-rule="evenodd" clip-rule="evenodd" d="M12.75 12.75C12.75 11.9216 13.4216 11.25 14.25 11.25H19.25C20.0784 11.25 20.75 11.9216 20.75 12.75V19.25C20.75 20.0784 20.0784 20.75 19.25 20.75H14.25C13.4216 20.75 12.75 20.0784 12.75 19.25V12.75ZM19.25 12.75H14.25V19.25H19.25V12.75Z" fill="black"/>
<path fill-rule="evenodd" clip-rule="evenodd" d="M14.25 3.25C13.4216 3.25 12.75 3.92157 12.75 4.75V8.25C12.75 9.07843 13.4216 9.75 14.25 9.75H19.25C20.0784 9.75 20.75 9.07843 20.75 8.25V4.75C20.75 3.92157 20.0784 3.25 19.25 3.25H14.25ZM14.25 4.75L19.25 4.75V8.25H14.25V4.75Z" fill="black"/>
</svg>
