<svg width="24" height="24" viewBox="0 0 24 24" fill="none" xmlns="http://www.w3.org/2000/svg">
<path d="M19.0198 2.99772C19.0186 2.58351 18.6818 2.24874 18.2676 2.25C17.8534 2.25126 17.5186 2.58807 17.5199 3.00228L17.5294 6.13956C17.5307 6.55377 17.8675 6.88854 18.2817 6.88728C18.6959 6.88602 19.0306 6.54921 19.0294 6.135L19.0198 2.99772Z" fill="black"/>
<path d="M12 3.75033C7.44365 3.75033 3.75 7.44398 3.75 12.0003C3.75 16.5567 7.44365 20.2503 12 20.2503C13.2298 20.2503 14.3949 19.9817 15.4414 19.5007C15.8177 19.3277 16.2631 19.4926 16.4361 19.8689C16.6091 20.2453 16.4442 20.6906 16.0678 20.8636C14.8288 21.4331 13.4504 21.7503 12 21.7503C6.61522 21.7503 2.25 17.3851 2.25 12.0003C2.25 6.61555 6.61522 2.25033 12 2.25033C12.4219 2.25033 12.8379 2.27717 13.2463 2.32932C13.6572 2.38178 13.9477 2.75739 13.8953 3.16827C13.8428 3.57915 13.4672 3.8697 13.0563 3.81724C12.7108 3.77312 12.3582 3.75033 12 3.75033Z" fill="black"/>
<path d="M15.5967 2.34994C16.0109 2.34994 16.3467 2.68573 16.3467 3.09994V6.73717C16.3467 7.82955 17.2322 8.71509 18.3246 8.71509C19.417 8.71509 20.3025 7.82955 20.3025 6.73717V3.09994C20.3025 2.68573 20.6383 2.34994 21.0525 2.34994C21.4667 2.34994 21.8025 2.68573 21.8025 3.09994V6.73717C21.8025 8.65797 20.2454 10.2151 18.3246 10.2151C16.4038 10.2151 14.8467 8.65798 14.8467 6.73717V3.09994C14.8467 2.68573 15.1825 2.34994 15.5967 2.34994Z" fill="black"/>
<path d="M18.2695 10.7523C18.6837 10.7523 19.0195 11.0881 19.0195 11.5023V21.4956C19.0195 21.9098 18.6837 22.2456 18.2695 22.2456C17.8553 22.2456 17.5195 21.9098 17.5195 21.4956V11.5023C17.5195 11.0881 17.8553 10.7523 18.2695 10.7523Z" fill="black"/>
<path d="M12 6.25033C8.82436 6.25033 6.25 8.82469 6.25 12.0003C6.25 15.176 8.82436 17.7503 12 17.7503C12.8548 17.7503 13.668 17.5633 14.3991 17.2272C15.0157 16.9438 15.5729 16.5549 16.048 16.0839C16.1901 15.9431 16.27 15.7514 16.27 15.5513V11.4434C16.27 11.1794 16.1312 10.9348 15.9045 10.7994C14.6002 10.0205 13.7026 8.63205 13.6055 7.02813C13.5844 6.68084 13.3273 6.39361 12.9845 6.3344C12.6641 6.27908 12.3351 6.25033 12 6.25033Z" fill="black"/>
</svg>
