<svg width="24" height="24" viewBox="0 0 24 24" fill="none" xmlns="http://www.w3.org/2000/svg">
<path fill-rule="evenodd" clip-rule="evenodd" d="M18.2676 2.25C18.6818 2.24874 19.0186 2.58351 19.0198 2.99772L19.0294 6.135C19.0306 6.54921 18.6959 6.88602 18.2817 6.88728C17.8675 6.88854 17.5307 6.55377 17.5294 6.13956L17.5199 3.00228C17.5186 2.58807 17.8534 2.25126 18.2676 2.25ZM18.2695 10.7523C18.6837 10.7523 19.0195 11.0881 19.0195 11.5023V21.4956C19.0195 21.9098 18.6837 22.2456 18.2695 22.2456C17.8553 22.2456 17.5195 21.9098 17.5195 21.4956V11.5023C17.5195 11.0881 17.8553 10.7523 18.2695 10.7523ZM16.3467 3.09994C16.3467 2.68573 16.0109 2.34994 15.5967 2.34994C15.1825 2.34994 14.8467 2.68573 14.8467 3.09994V6.73717C14.8467 8.65797 16.4038 10.2151 18.3246 10.2151C20.2454 10.2151 21.8025 8.65797 21.8025 6.73717V3.09994C21.8025 2.68573 21.4667 2.34994 21.0525 2.34994C20.6383 2.34994 20.3025 2.68573 20.3025 3.09994V6.73717C20.3025 7.82955 19.417 8.71509 18.3246 8.71509C17.2322 8.71509 16.3467 7.82955 16.3467 6.73717V3.09994ZM12 3.75033C7.44365 3.75033 3.75 7.44398 3.75 12.0003C3.75 16.5567 7.44365 20.2503 12 20.2503C13.2298 20.2503 14.3949 19.9817 15.4414 19.5007C15.8177 19.3277 16.2631 19.4926 16.4361 19.8689C16.6091 20.2453 16.4442 20.6906 16.0678 20.8636C14.8288 21.4331 13.4504 21.7503 12 21.7503C6.61522 21.7503 2.25 17.3851 2.25 12.0003C2.25 6.61555 6.61522 2.25033 12 2.25033C12.4219 2.25033 12.8379 2.27717 13.2463 2.32932C13.6572 2.38178 13.9477 2.75739 13.8953 3.16827C13.8428 3.57915 13.4672 3.8697 13.0563 3.81724C12.7108 3.77312 12.3582 3.75033 12 3.75033ZM7.75 12.0003C7.75 9.65312 9.65279 7.75033 12 7.75033C12.3164 7.75033 12.6239 7.78477 12.9192 7.84983C13.3237 7.93894 13.7239 7.68326 13.813 7.27874C13.9021 6.87423 13.6464 6.47406 13.2419 6.38495C12.8413 6.2967 12.4256 6.25033 12 6.25033C8.82436 6.25033 6.25 8.82469 6.25 12.0003C6.25 15.176 8.82436 17.7503 12 17.7503C12.8548 17.7503 13.668 17.5633 14.3991 17.2272C15.1055 16.9025 15.7342 16.4393 16.2506 15.8727C16.5296 15.5666 16.5076 15.0922 16.2015 14.8132C15.8954 14.5342 15.421 14.5561 15.142 14.8623C14.7593 15.2821 14.2941 15.6247 13.7727 15.8643C13.234 16.1119 12.6342 16.2503 12 16.2503C9.65279 16.2503 7.75 14.3475 7.75 12.0003Z" fill="black"/>
</svg>
