<svg width="24" height="24" viewBox="0 0 24 24" fill="none" xmlns="http://www.w3.org/2000/svg">
<path fill-rule="evenodd" clip-rule="evenodd" d="M5.625 1.49902C4.58947 1.49902 3.75 2.33849 3.75 3.37402V20.624C3.75 21.6596 4.58947 22.499 5.625 22.499H10.4359C10.7108 22.499 10.9637 22.3486 11.0949 22.1071C11.2262 21.8655 11.2148 21.5715 11.0652 21.3409C10.3481 20.2355 9.93164 18.9175 9.93164 17.5C9.93164 16.895 10.0075 16.3087 10.1499 15.7495H8.25C7.83579 15.7495 7.5 15.4137 7.5 14.9995C7.5 14.5853 7.83579 14.2495 8.25 14.2495H10.6874C10.6987 14.2495 10.71 14.2498 10.7212 14.2503C11.004 13.7051 11.3559 13.2011 11.7655 12.75H8.25C7.83579 12.75 7.5 12.4142 7.5 12C7.5 11.5858 7.83579 11.25 8.25 11.25H13.6952C14.6814 10.7274 15.8059 10.4316 17 10.4316C17.7917 10.4316 18.5516 10.5615 19.2603 10.8005C19.4892 10.8777 19.7413 10.84 19.9375 10.6991C20.1337 10.5582 20.25 10.3314 20.25 10.0899V3.39738C20.25 2.3486 19.4023 1.49914 18.3524 1.49912L5.625 1.49902ZM8.25 5.25C7.83579 5.25 7.5 5.58579 7.5 6C7.5 6.41421 7.83579 6.75 8.25 6.75H12C12.4142 6.75 12.75 6.41421 12.75 6C12.75 5.58579 12.4142 5.25 12 5.25H8.25ZM8.25 8.25C7.83579 8.25 7.5 8.58579 7.5 9C7.5 9.41421 7.83579 9.75 8.25 9.75H15.75C16.1642 9.75 16.5 9.41421 16.5 9C16.5 8.58579 16.1642 8.25 15.75 8.25H8.25Z" fill="black"/>
<path d="M17 14.3244C17.4142 14.3244 17.75 14.6602 17.75 15.0744V16.75H19.4375C19.8517 16.75 20.1875 17.0858 20.1875 17.5C20.1875 17.9142 19.8517 18.25 19.4375 18.25H17C16.5858 18.25 16.25 17.9142 16.25 17.5V15.0744C16.25 14.6602 16.5858 14.3244 17 14.3244Z" fill="black"/>
<path fill-rule="evenodd" clip-rule="evenodd" d="M11.375 17.5C11.375 14.3934 13.8934 11.875 17 11.875C20.1066 11.875 22.625 14.3934 22.625 17.5C22.625 20.6066 20.1066 23.125 17 23.125C13.8934 23.125 11.375 20.6066 11.375 17.5ZM17 13.375C14.7218 13.375 12.875 15.2218 12.875 17.5C12.875 19.7782 14.7218 21.625 17 21.625C19.2782 21.625 21.125 19.7782 21.125 17.5C21.125 15.2218 19.2782 13.375 17 13.375Z" fill="black"/>
</svg>
