<svg width="24" height="24" viewBox="0 0 24 24" fill="none" xmlns="http://www.w3.org/2000/svg">
<path d="M5.25 3.37402C5.25 3.16692 5.41789 2.99902 5.625 2.99902L18.3524 2.99912C18.5735 2.99912 18.75 3.1758 18.75 3.39656V10.7596C18.75 11.1738 19.0858 11.5096 19.5 11.5096C19.9142 11.5096 20.25 11.1738 20.25 10.7596V3.39656C20.25 2.34709 19.4016 1.49914 18.3524 1.49912L5.625 1.49902C4.58947 1.49902 3.75 2.33849 3.75 3.37402V20.624C3.75 21.6596 4.58947 22.499 5.625 22.499H11.3338C11.748 22.499 12.0838 22.1632 12.0838 21.749C12.0838 21.3348 11.748 20.999 11.3338 20.999H5.625C5.41789 20.999 5.25 20.8311 5.25 20.624V3.37402Z" fill="black"/>
<path d="M8.25 5.25C7.83579 5.25 7.5 5.58579 7.5 6C7.5 6.41421 7.83579 6.75 8.25 6.75H12C12.4142 6.75 12.75 6.41421 12.75 6C12.75 5.58579 12.4142 5.25 12 5.25H8.25Z" fill="black"/>
<path d="M8.25 8.25C7.83579 8.25 7.5 8.58579 7.5 9C7.5 9.41421 7.83579 9.75 8.25 9.75H15.75C16.1642 9.75 16.5 9.41421 16.5 9C16.5 8.58579 16.1642 8.25 15.75 8.25H8.25Z" fill="black"/>
<path d="M8.25 11.25C7.83579 11.25 7.5 11.5858 7.5 12C7.5 12.4142 7.83579 12.75 8.25 12.75H12C12.4142 12.75 12.75 12.4142 12.75 12C12.75 11.5858 12.4142 11.25 12 11.25H8.25Z" fill="black"/>
<path d="M8.25 14.2495C7.83579 14.2495 7.5 14.5853 7.5 14.9995C7.5 15.4137 7.83579 15.7495 8.25 15.7495H10.125C10.5392 15.7495 10.875 15.4137 10.875 14.9995C10.875 14.5853 10.5392 14.2495 10.125 14.2495H8.25Z" fill="black"/>
<path d="M17.75 15.0744C17.75 14.6602 17.4142 14.3244 17 14.3244C16.5858 14.3244 16.25 14.6602 16.25 15.0744V17.5C16.25 17.9142 16.5858 18.25 17 18.25H19.4375C19.8517 18.25 20.1875 17.9142 20.1875 17.5C20.1875 17.0858 19.8517 16.75 19.4375 16.75H17.75V15.0744Z" fill="black"/>
<path fill-rule="evenodd" clip-rule="evenodd" d="M17 11.875C13.8934 11.875 11.375 14.3934 11.375 17.5C11.375 20.6066 13.8934 23.125 17 23.125C20.1066 23.125 22.625 20.6066 22.625 17.5C22.625 14.3934 20.1066 11.875 17 11.875ZM12.875 17.5C12.875 15.2218 14.7218 13.375 17 13.375C19.2782 13.375 21.125 15.2218 21.125 17.5C21.125 19.7782 19.2782 21.625 17 21.625C14.7218 21.625 12.875 19.7782 12.875 17.5Z" fill="black"/>
</svg>
