<svg width="24" height="24" viewBox="0 0 24 24" fill="none" xmlns="http://www.w3.org/2000/svg">
<path fill-rule="evenodd" clip-rule="evenodd" d="M3.75 3.37402C3.75 2.33849 4.58947 1.49902 5.625 1.49902L18.3524 1.49912C19.4029 1.49914 20.25 2.34984 20.25 3.39805V20.624C20.25 21.6596 19.4105 22.499 18.375 22.499H5.625C4.58947 22.499 3.75 21.6596 3.75 20.624V3.37402ZM8.25 8.25C7.83579 8.25 7.5 8.58579 7.5 9C7.5 9.41421 7.83579 9.75 8.25 9.75H12C12.4142 9.75 12.75 9.41421 12.75 9C12.75 8.58579 12.4142 8.25 12 8.25H8.25ZM8.25 11.25C7.83579 11.25 7.5 11.5858 7.5 12C7.5 12.4142 7.83579 12.75 8.25 12.75H15.75C16.1642 12.75 16.5 12.4142 16.5 12C16.5 11.5858 16.1642 11.25 15.75 11.25H8.25ZM8.25 14.249C7.83579 14.249 7.5 14.5848 7.5 14.999C7.5 15.4132 7.83579 15.749 8.25 15.749H15.75C16.1642 15.749 16.5 15.4132 16.5 14.999C16.5 14.5848 16.1642 14.249 15.75 14.249H8.25ZM8.25 17.249C7.83579 17.249 7.5 17.5848 7.5 17.999C7.5 18.4132 7.83579 18.749 8.25 18.749H12C12.4142 18.749 12.75 18.4132 12.75 17.999C12.75 17.5848 12.4142 17.249 12 17.249H8.25Z" fill="black"/>
</svg>
