<svg width="24" height="24" viewBox="0 0 24 24" fill="none" xmlns="http://www.w3.org/2000/svg">
<path fill-rule="evenodd" clip-rule="evenodd" d="M5.625 2.99902C5.41789 2.99902 5.25 3.16692 5.25 3.37402V20.624C5.25 20.8311 5.41789 20.999 5.625 20.999H18.375C18.5821 20.999 18.75 20.8311 18.75 20.624V3.39805C18.75 3.17602 18.5722 2.99912 18.3524 2.99912L5.625 2.99902ZM5.625 1.49902C4.58947 1.49902 3.75 2.33849 3.75 3.37402V20.624C3.75 21.6596 4.58947 22.499 5.625 22.499H18.375C19.4105 22.499 20.25 21.6596 20.25 20.624V3.39805C20.25 2.34984 19.4029 1.49914 18.3524 1.49912L5.625 1.49902ZM7.5 9C7.5 8.58579 7.83579 8.25 8.25 8.25H12C12.4142 8.25 12.75 8.58579 12.75 9C12.75 9.41421 12.4142 9.75 12 9.75H8.25C7.83579 9.75 7.5 9.41421 7.5 9ZM7.5 12C7.5 11.5858 7.83579 11.25 8.25 11.25H15.75C16.1642 11.25 16.5 11.5858 16.5 12C16.5 12.4142 16.1642 12.75 15.75 12.75H8.25C7.83579 12.75 7.5 12.4142 7.5 12ZM7.5 14.999C7.5 14.5848 7.83579 14.249 8.25 14.249H15.75C16.1642 14.249 16.5 14.5848 16.5 14.999C16.5 15.4132 16.1642 15.749 15.75 15.749H8.25C7.83579 15.749 7.5 15.4132 7.5 14.999ZM7.5 17.999C7.5 17.5848 7.83579 17.249 8.25 17.249H12C12.4142 17.249 12.75 17.5848 12.75 17.999C12.75 18.4132 12.4142 18.749 12 18.749H8.25C7.83579 18.749 7.5 18.4132 7.5 17.999Z" fill="black"/>
</svg>
