<svg width="24" height="24" viewBox="0 0 24 24" fill="none" xmlns="http://www.w3.org/2000/svg">
<path fill-rule="evenodd" clip-rule="evenodd" d="M6 10.25C5.0335 10.25 4.25 11.0335 4.25 12C4.25 12.9665 5.0335 13.75 6 13.75C6.9665 13.75 7.75 12.9665 7.75 12C7.75 11.0335 6.9665 10.25 6 10.25ZM6.25 12C6.25 12.1381 6.13807 12.25 6 12.25C5.86193 12.25 5.75 12.1381 5.75 12C5.75 11.8619 5.86193 11.75 6 11.75C6.13807 11.75 6.25 11.8619 6.25 12Z" fill="black"/>
<path fill-rule="evenodd" clip-rule="evenodd" d="M12 10.25C11.0335 10.25 10.25 11.0335 10.25 12C10.25 12.9665 11.0335 13.75 12 13.75C12.9665 13.75 13.75 12.9665 13.75 12C13.75 11.0335 12.9665 10.25 12 10.25ZM12.25 12C12.25 12.1381 12.1381 12.25 12 12.25C11.8619 12.25 11.75 12.1381 11.75 12C11.75 11.8619 11.8619 11.75 12 11.75C12.1381 11.75 12.25 11.8619 12.25 12Z" fill="black"/>
<path fill-rule="evenodd" clip-rule="evenodd" d="M18 10.25C17.0335 10.25 16.25 11.0335 16.25 12C16.25 12.9665 17.0335 13.75 18 13.75C18.9665 13.75 19.75 12.9665 19.75 12C19.75 11.0335 18.9665 10.25 18 10.25ZM18.25 12C18.25 12.1381 18.1381 12.25 18 12.25C17.8619 12.25 17.75 12.1381 17.75 12C17.75 11.8619 17.8619 11.75 18 11.75C18.1381 11.75 18.25 11.8619 18.25 12Z" fill="black"/>
</svg>
