<svg width="24" height="24" viewBox="0 0 24 24" fill="none" xmlns="http://www.w3.org/2000/svg">
<path fill-rule="evenodd" clip-rule="evenodd" d="M12 4.25C11.0335 4.25 10.25 5.0335 10.25 6C10.25 6.9665 11.0335 7.75 12 7.75C12.9665 7.75 13.75 6.9665 13.75 6C13.75 5.0335 12.9665 4.25 12 4.25ZM12.25 6C12.25 6.13807 12.1381 6.25 12 6.25C11.8619 6.25 11.75 6.13807 11.75 6C11.75 5.86193 11.8619 5.75 12 5.75C12.1381 5.75 12.25 5.86193 12.25 6Z" fill="black"/>
<path fill-rule="evenodd" clip-rule="evenodd" d="M12 10.25C11.0335 10.25 10.25 11.0335 10.25 12C10.25 12.9665 11.0335 13.75 12 13.75C12.9665 13.75 13.75 12.9665 13.75 12C13.75 11.0335 12.9665 10.25 12 10.25ZM12.25 12C12.25 12.1381 12.1381 12.25 12 12.25C11.8619 12.25 11.75 12.1381 11.75 12C11.75 11.8619 11.8619 11.75 12 11.75C12.1381 11.75 12.25 11.8619 12.25 12Z" fill="black"/>
<path fill-rule="evenodd" clip-rule="evenodd" d="M12 16.25C11.0335 16.25 10.25 17.0335 10.25 18C10.25 18.9665 11.0335 19.75 12 19.75C12.9665 19.75 13.75 18.9665 13.75 18C13.75 17.0335 12.9665 16.25 12 16.25ZM12.25 18C12.25 18.1381 12.1381 18.25 12 18.25C11.8619 18.25 11.75 18.1381 11.75 18C11.75 17.8619 11.8619 17.75 12 17.75C12.1381 17.75 12.25 17.8619 12.25 18Z" fill="black"/>
</svg>
