<svg width="24" height="24" viewBox="0 0 24 24" fill="none" xmlns="http://www.w3.org/2000/svg">
<path fill-rule="evenodd" clip-rule="evenodd" d="M10.5777 2.16425C11.4656 1.68614 12.5344 1.68614 13.4223 2.16425L20.9223 6.20271C21.894 6.72595 22.5 7.74048 22.5 8.84413V19.5002C22.5 21.1571 21.1569 22.5002 19.5 22.5002H4.5C2.84315 22.5002 1.5 21.1571 1.5 19.5002L1.5 9.90687C1.5 9.90706 1.5 9.90668 1.5 9.90687L1.5 9.00021C1.5 9.00031 1.5 9.00011 1.5 9.00021L1.5 8.84412C1.5 7.74048 2.10597 6.72595 3.0777 6.20271L10.5777 2.16425ZM3 12.5044V19.5002C3 20.3286 3.67157 21.0002 4.5 21.0002H19.5C20.3284 21.0002 21 20.3286 21 19.5002V12.5044C20.9744 12.5192 20.9485 12.5336 20.9223 12.5477L15.6712 15.3752L19.1056 17.2245C19.4703 17.4209 19.6067 17.8757 19.4104 18.2404C19.214 18.6051 18.7591 18.7416 18.3944 18.5452L12.7112 15.485C12.2672 15.2459 11.7328 15.2459 11.2889 15.485L5.60557 18.5452C5.24087 18.7416 4.78602 18.6051 4.58965 18.2404C4.39327 17.8757 4.52972 17.4209 4.89442 17.2245L8.32879 15.3752L3.0777 12.5477C3.05153 12.5336 3.02563 12.5192 3 12.5044ZM9.91074 14.5234L10.5777 14.1643C11.4656 13.6862 12.5344 13.6862 13.4223 14.1643L14.0893 14.5234L20.2112 11.227C20.697 10.9654 21 10.4581 21 9.9063V8.84413C21 8.2923 20.697 7.78504 20.2112 7.52342L12.7112 3.48496C12.2672 3.2459 11.7328 3.2459 11.2889 3.48496L3.78885 7.52342C3.30299 7.78504 3 8.2923 3 8.84412V9.9063C3 9.90617 3 9.90644 3 9.9063C3.00015 10.458 3.3031 10.9655 3.78885 11.227L9.91074 14.5234Z" fill="black"/>
</svg>
