<svg width="24" height="24" viewBox="0 0 24 24" fill="none" xmlns="http://www.w3.org/2000/svg">
<path fill-rule="evenodd" clip-rule="evenodd" d="M13.2987 3.75335C12.7215 2.75279 11.2774 2.75279 10.7001 3.75335L3.34582 16.5008C2.7689 17.5008 3.49061 18.7504 4.6451 18.7504H19.3538C20.5082 18.7504 21.23 17.5008 20.653 16.5008L13.2987 3.75335ZM9.40087 3.00376C10.5554 1.00265 13.4435 1.00265 14.598 3.00376L21.9523 15.7513C23.1062 17.7513 21.6627 20.2504 19.3538 20.2504H4.6451C2.33612 20.2504 0.892695 17.7513 2.04654 15.7513L9.40087 3.00376ZM11.9994 8.25043C12.4136 8.25043 12.7494 8.58622 12.7494 9.00043V12.7504C12.7494 13.1646 12.4136 13.5004 11.9994 13.5004C11.5852 13.5004 11.2494 13.1646 11.2494 12.7504V9.00043C11.2494 8.58622 11.5852 8.25043 11.9994 8.25043ZM11.2494 15.7504C11.2494 15.3362 11.5852 15.0004 11.9994 15.0004H12.0069C12.4211 15.0004 12.7569 15.3362 12.7569 15.7504V15.7579C12.7569 16.1721 12.4211 16.5079 12.0069 16.5079H11.9994C11.5852 16.5079 11.2494 16.1721 11.2494 15.7579V15.7504Z" fill="black"/>
</svg>
