<svg width="24" height="24" viewBox="0 0 24 24" fill="none" xmlns="http://www.w3.org/2000/svg">
<path fill-rule="evenodd" clip-rule="evenodd" d="M9.40087 3.00376C10.5554 1.00265 13.4435 1.00265 14.598 3.00376L21.9523 15.7513C23.1062 17.7513 21.6627 20.2504 19.3538 20.2504H4.6451C2.33612 20.2504 0.892695 17.7513 2.04654 15.7513L9.40087 3.00376ZM11.9996 8.25037C12.4138 8.25037 12.7496 8.58615 12.7496 9.00037V12.7504C12.7496 13.1646 12.4138 13.5004 11.9996 13.5004C11.5854 13.5004 11.2496 13.1646 11.2496 12.7504V9.00037C11.2496 8.58615 11.5854 8.25037 11.9996 8.25037ZM11.9996 16.5004C12.4138 16.5004 12.7496 16.1646 12.7496 15.7504C12.7496 15.3362 12.4138 15.0004 11.9996 15.0004C11.5854 15.0004 11.2496 15.3362 11.2496 15.7504C11.2496 16.1646 11.5854 16.5004 11.9996 16.5004Z" fill="black"/>
</svg>
