<svg width="24" height="24" viewBox="0 0 24 24" fill="none" xmlns="http://www.w3.org/2000/svg">
<path fill-rule="evenodd" clip-rule="evenodd" d="M12.0005 5.25C7.69308 5.25 4.0362 8.04374 2.74673 11.9202C2.72894 11.9736 2.72896 12.0318 2.74678 12.0852C4.03786 15.9589 7.69334 18.75 11.9988 18.75C16.3062 18.75 19.9631 15.9563 21.2526 12.0798C21.2703 12.0264 21.2703 11.9682 21.2525 11.9148C19.9614 8.04113 16.3059 5.25 12.0005 5.25ZM1.32341 11.4467C2.81066 6.97571 7.02791 3.75 12.0005 3.75C16.9708 3.75 21.1864 6.97271 22.6755 11.4405C22.7959 11.8015 22.796 12.1922 22.6759 12.5533C21.1886 17.0243 16.9714 20.25 11.9988 20.25C7.02847 20.25 2.81284 17.0273 1.32374 12.5595C1.2034 12.1985 1.20328 11.8078 1.32341 11.4467ZM11.9997 9.75C10.7571 9.75 9.74971 10.7574 9.74971 12C9.74971 13.2426 10.7571 14.25 11.9997 14.25C13.2423 14.25 14.2497 13.2426 14.2497 12C14.2497 10.7574 13.2423 9.75 11.9997 9.75ZM8.24971 12C8.24971 9.92893 9.92864 8.25 11.9997 8.25C14.0708 8.25 15.7497 9.92893 15.7497 12C15.7497 14.0711 14.0708 15.75 11.9997 15.75C9.92864 15.75 8.24971 14.0711 8.24971 12Z" fill="black"/>
</svg>
