<svg width="24" height="24" viewBox="0 0 24 24" fill="none" xmlns="http://www.w3.org/2000/svg">
<path fill-rule="evenodd" clip-rule="evenodd" d="M8.24971 12C8.24971 9.92893 9.92864 8.25 11.9997 8.25C14.0708 8.25 15.7497 9.92893 15.7497 12C15.7497 14.0711 14.0708 15.75 11.9997 15.75C9.92864 15.75 8.24971 14.0711 8.24971 12ZM11.9997 9.75C10.7571 9.75 9.74971 10.7574 9.74971 12C9.74971 13.2426 10.7571 14.25 11.9997 14.25C13.2423 14.25 14.2497 13.2426 14.2497 12C14.2497 10.7574 13.2423 9.75 11.9997 9.75Z" fill="black"/>
<path fill-rule="evenodd" clip-rule="evenodd" d="M21.3117 15.3129C21.8855 14.4681 22.3473 13.5411 22.6759 12.5533C22.796 12.1922 22.7959 11.8015 22.6755 11.4405C21.1864 6.97271 16.9708 3.75 12.0005 3.75C7.02791 3.75 2.81066 6.97571 1.32341 11.4467C1.20328 11.8078 1.2034 12.1985 1.32374 12.5595C2.81284 17.0273 7.02847 20.25 11.9988 20.25C12.8623 20.25 13.703 20.1527 14.5106 19.9686C15.1084 21.5921 16.669 22.75 18.5 22.75C20.8472 22.75 22.75 20.8472 22.75 18.5C22.75 17.2309 22.1937 16.0917 21.3117 15.3129ZM12.0005 5.25C7.69308 5.25 4.0362 8.04374 2.74673 11.9202C2.72894 11.9736 2.72896 12.0318 2.74678 12.0852C4.03786 15.9589 7.69334 18.75 11.9988 18.75C12.7736 18.75 13.5273 18.6596 14.25 18.4888C14.2561 16.1467 16.1565 14.25 18.5 14.25C19.0386 14.25 19.5539 14.3502 20.0281 14.533C20.5449 13.7845 20.9598 12.9601 21.2526 12.0798C21.2703 12.0264 21.2703 11.9682 21.2525 11.9148C19.9614 8.04113 16.3059 5.25 12.0005 5.25ZM18.5 15.75C18.0208 15.75 17.5702 15.8726 17.1779 16.0881L20.9118 19.8222C21.1274 19.4299 21.25 18.9793 21.25 18.5C21.25 16.9812 20.0188 15.75 18.5 15.75ZM15.75 18.5C15.75 18.0055 15.8805 17.5415 16.109 17.1405L19.8594 20.8911C19.4584 21.1195 18.9945 21.25 18.5 21.25C16.9812 21.25 15.75 20.0188 15.75 18.5Z" fill="black"/>
</svg>
