<svg width="24" height="24" viewBox="0 0 24 24" fill="none" xmlns="http://www.w3.org/2000/svg">
<path d="M12 15C13.6569 15 15 13.6569 15 12C15 10.3431 13.6569 9 12 9C10.3431 9 9 10.3431 9 12C9 13.6569 10.3431 15 12 15Z" fill="black"/>
<path fill-rule="evenodd" clip-rule="evenodd" d="M1.32341 11.4467C2.81066 6.97571 7.02791 3.75 12.0005 3.75C16.9708 3.75 21.1864 6.97271 22.6755 11.4405C22.7959 11.8015 22.796 12.1922 22.6759 12.5533C22.3473 13.5411 21.8855 14.4681 21.3117 15.3129C22.1937 16.0917 22.75 17.2309 22.75 18.5C22.75 20.8472 20.8472 22.75 18.5 22.75C16.669 22.75 15.1084 21.5921 14.5106 19.9686C13.703 20.1527 12.8623 20.25 11.9988 20.25C7.02847 20.25 2.81284 17.0273 1.32374 12.5595C1.2034 12.1985 1.20328 11.8078 1.32341 11.4467ZM16.4603 14.7706C15.7485 15.1606 15.1606 15.7485 14.7706 16.4603C13.9664 16.9608 13.017 17.25 12 17.25C9.1005 17.25 6.75 14.8995 6.75 12C6.75 9.1005 9.1005 6.75 12 6.75C14.8995 6.75 17.25 9.1005 17.25 12C17.25 13.017 16.9608 13.9664 16.4603 14.7706ZM18.5 15.75C18.0208 15.75 17.5702 15.8726 17.1779 16.0881L20.9118 19.8222C21.1274 19.4299 21.25 18.9793 21.25 18.5C21.25 16.9812 20.0188 15.75 18.5 15.75ZM15.75 18.5C15.75 18.0055 15.8805 17.5415 16.109 17.1405L19.8594 20.8911C19.4584 21.1195 18.9945 21.25 18.5 21.25C16.9812 21.25 15.75 20.0188 15.75 18.5Z" fill="black"/>
</svg>
