<svg width="24" height="24" viewBox="0 0 24 24" fill="none" xmlns="http://www.w3.org/2000/svg">
<path fill-rule="evenodd" clip-rule="evenodd" d="M2.46988 2.46967C2.76278 2.17678 3.23765 2.17678 3.53054 2.46967L6.3378 5.27692C8.00137 4.30617 9.93676 3.75 12.0002 3.75C17.097 3.75 21.4004 7.13879 22.7837 11.7845C22.8253 11.9241 22.8253 12.0727 22.7838 12.2124C22.1095 14.4791 20.7412 16.4451 18.9261 17.8652L21.5305 20.4697C21.8234 20.7626 21.8234 21.2374 21.5305 21.5303C21.2376 21.8232 20.7628 21.8232 20.4699 21.5303L2.46988 3.53033C2.17699 3.23744 2.17699 2.76256 2.46988 2.46967ZM17.8564 16.7955C19.4451 15.5998 20.6561 13.9302 21.2797 11.9986C20.0139 8.08178 16.3368 5.25 12.0002 5.25C10.3519 5.25 8.80064 5.65845 7.44043 6.37955L9.93226 8.87138C10.525 8.479 11.2362 8.25 12.0002 8.25C14.0713 8.25 15.7502 9.92893 15.7502 12C15.7502 12.764 15.5212 13.4753 15.1288 14.068L17.8564 16.7955ZM14.0311 12.9702C14.1717 12.6765 14.2502 12.3476 14.2502 12C14.2502 10.7574 13.2429 9.75 12.0002 9.75C11.6526 9.75 11.3237 9.82853 11.03 9.96914L14.0311 12.9702ZM4.46452 7.64996C4.78076 7.91748 4.82027 8.39071 4.55275 8.70695C3.74229 9.66504 3.11382 10.7809 2.71979 12.0014C3.98561 15.9182 7.66271 18.75 11.9993 18.75C12.9222 18.75 13.814 18.622 14.6584 18.3832C15.057 18.2705 15.4715 18.5022 15.5842 18.9008C15.6969 19.2994 15.4651 19.7139 15.0665 19.8266C14.0906 20.1026 13.0616 20.25 11.9993 20.25C6.9025 20.25 2.59914 16.8612 1.21576 12.2155C1.17419 12.0759 1.17417 11.9273 1.2157 11.7876C1.66392 10.2808 2.41891 8.9069 3.40754 7.73819C3.67505 7.42195 4.14828 7.38245 4.46452 7.64996Z" fill="black"/>
</svg>
