<svg width="24" height="24" viewBox="0 0 24 24" fill="none" xmlns="http://www.w3.org/2000/svg">
<path d="M21.7214 12.7522C21.7404 12.5041 21.75 12.2534 21.75 12.0004C21.75 10.4762 21.4003 9.03376 20.7767 7.74884C19.5396 8.92318 18.0671 9.85195 16.4374 10.457C16.4789 10.966 16.5 11.4807 16.5 12.0004C16.5 13.1016 16.4051 14.1806 16.2229 15.2298C18.2163 14.7282 20.0717 13.8797 21.7214 12.7522Z" fill="black"/>
<path d="M14.6343 15.5505C14.874 14.4048 15 13.2173 15 12.0004C15 11.632 14.9885 11.2663 14.9657 10.9037C14.0141 11.1304 13.021 11.2504 12 11.2504C10.979 11.2504 9.98594 11.1304 9.0343 10.9037C9.01155 11.2663 9 11.632 9 12.0004C9 13.2173 9.12601 14.4048 9.3657 15.5505C10.2246 15.6822 11.1043 15.7504 12 15.7504C12.8957 15.7504 13.7754 15.6822 14.6343 15.5505Z" fill="black"/>
<path d="M9.77224 17.1195C10.5028 17.2059 11.2462 17.2504 12 17.2504C12.7538 17.2504 13.4972 17.2059 14.2278 17.1195C13.714 18.7751 12.9575 20.324 12 21.7245C11.0425 20.324 10.286 18.7751 9.77224 17.1195Z" fill="black"/>
<path d="M7.77705 15.2298C7.59493 14.1806 7.5 13.1016 7.5 12.0004C7.5 11.4807 7.52114 10.966 7.56261 10.457C5.93286 9.85194 4.46039 8.92318 3.22333 7.74884C2.59973 9.03376 2.25 10.4762 2.25 12.0004C2.25 12.2534 2.25964 12.5041 2.27856 12.7522C3.92826 13.8797 5.78374 14.7282 7.77705 15.2298Z" fill="black"/>
<path d="M21.3561 14.7529C20.3404 18.2109 17.4597 20.871 13.8776 21.5698C14.744 20.1128 15.4185 18.5283 15.8664 16.8513C17.8263 16.4405 19.6736 15.7236 21.3561 14.7529Z" fill="black"/>
<path d="M2.64395 14.7529C4.32642 15.7236 6.17372 16.4405 8.13356 16.8513C8.58146 18.5283 9.25602 20.1128 10.1224 21.5698C6.54027 20.871 3.65964 18.2109 2.64395 14.7529Z" fill="black"/>
<path d="M13.8776 2.43104C16.3991 2.92294 18.5731 4.38669 19.9937 6.41648C18.9351 7.48533 17.6637 8.343 16.2483 8.92065C15.862 6.58331 15.0435 4.39181 13.8776 2.43104Z" fill="black"/>
<path d="M12 2.27637C13.4287 4.36596 14.4097 6.78586 14.805 9.39793C13.9083 9.62805 12.9684 9.75042 12 9.75042C11.0316 9.75042 10.0917 9.62805 9.19503 9.39793C9.5903 6.78586 10.5713 4.36596 12 2.27637Z" fill="black"/>
<path d="M10.1224 2.43104C8.95648 4.39181 8.13795 6.58331 7.75171 8.92065C6.33629 8.343 5.06489 7.48533 4.00635 6.41648C5.42689 4.38669 7.60085 2.92294 10.1224 2.43104Z" fill="black"/>
</svg>
