<svg width="24" height="24" viewBox="0 0 24 24" fill="none" xmlns="http://www.w3.org/2000/svg">
<path d="M2.25 11C2.25 5.61522 6.61522 1.25 12 1.25C17.3848 1.25 21.75 5.61522 21.75 11V15.5C21.75 16.7433 21.0518 17.8236 20.0261 18.3701V19.2877C20.0261 20.8065 18.7949 22.0377 17.2761 22.0377H15.3875C15.0286 22.7992 14.2541 23.3262 13.3564 23.3262C12.117 23.3262 11.1123 22.3214 11.1123 21.082C11.1123 19.8426 12.117 18.8379 13.3564 18.8379C14.4081 18.8379 15.2908 19.5613 15.5341 20.5377H17.2761C17.9664 20.5377 18.5261 19.9781 18.5261 19.2877V18.7499C18.5174 18.75 18.5087 18.75 18.5 18.75C16.7051 18.75 15.25 17.2949 15.25 15.5V13.5C15.25 11.7051 16.7051 10.25 18.5 10.25C19.1428 10.25 19.7421 10.4366 20.2465 10.7587C20.1189 6.31396 16.4756 2.75 12 2.75C7.52436 2.75 3.88113 6.31395 3.75346 10.7587C4.25789 10.4366 4.85715 10.25 5.5 10.25C7.29493 10.25 8.75 11.7051 8.75 13.5V15.5C8.75 17.2949 7.29493 18.75 5.5 18.75C3.70507 18.75 2.25 17.2949 2.25 15.5V11Z" fill="black"/>
</svg>
