<svg width="24" height="24" viewBox="0 0 24 24" fill="none" xmlns="http://www.w3.org/2000/svg">
<path d="M12 2.25C6.61522 2.25 2.25 6.61522 2.25 12V18.5C2.25 20.2949 3.70507 21.75 5.5 21.75C7.29493 21.75 8.75 20.2949 8.75 18.5V16.5C8.75 14.7051 7.29493 13.25 5.5 13.25C4.85568 13.25 4.25515 13.4375 3.75 13.7609V12C3.75 7.44365 7.44365 3.75 12 3.75C16.5563 3.75 20.25 7.44365 20.25 12V13.7609C19.7449 13.4375 19.1443 13.25 18.5 13.25C16.7051 13.25 15.25 14.7051 15.25 16.5V18.5C15.25 20.2949 16.7051 21.75 18.5 21.75C20.2949 21.75 21.75 20.2949 21.75 18.5V12C21.75 6.61522 17.3848 2.25 12 2.25Z" fill="black"/>
</svg>
