<svg width="24" height="24" viewBox="0 0 24 24" fill="none" xmlns="http://www.w3.org/2000/svg">
<path fill-rule="evenodd" clip-rule="evenodd" d="M2.25 5C2.25 3.48122 3.48122 2.25 5 2.25H19C20.5188 2.25 21.75 3.48122 21.75 5V19C21.75 20.5188 20.5188 21.75 19 21.75H5C3.48122 21.75 2.25 20.5188 2.25 19V5ZM5 20.25H14.5273C12.9787 18.4474 10.8728 17.4597 8.77558 16.9733C6.89416 16.5369 5.06344 16.5157 3.75 16.6553V19C3.75 19.6904 4.30964 20.25 5 20.25ZM3.75 15.1478C5.09592 15.0203 6.8518 15.047 8.68011 15.4177C10.7781 13.2003 14.395 11.4005 20.25 11.259V5C20.25 4.30964 19.6904 3.75 19 3.75H5C4.30964 3.75 3.75 4.30964 3.75 5V15.1478ZM20.25 12.7594C15.3076 12.8847 12.2342 14.2476 10.38 15.8637C12.6209 16.595 14.8531 17.9339 16.4092 20.25H19C19.6904 20.25 20.25 19.6904 20.25 19V12.7594ZM7.12427 6.69135C7.59165 6.35484 8.12998 6.25 8.5 6.25C8.87002 6.25 9.40835 6.35484 9.87573 6.69135C10.3814 7.0554 10.75 7.65556 10.75 8.5C10.75 9.34444 10.3814 9.9446 9.87573 10.3087C9.40835 10.6452 8.87002 10.75 8.5 10.75C8.12998 10.75 7.59165 10.6452 7.12427 10.3087C6.61865 9.9446 6.25 9.34444 6.25 8.5C6.25 7.65556 6.61865 7.0554 7.12427 6.69135ZM8.00073 7.90865C7.88135 7.9946 7.75 8.14444 7.75 8.5C7.75 8.85556 7.88135 9.0054 8.00073 9.09135C8.15835 9.20484 8.37002 9.25 8.5 9.25C8.62998 9.25 8.84165 9.20484 8.99927 9.09135C9.11865 9.0054 9.25 8.85556 9.25 8.5C9.25 8.14444 9.11865 7.9946 8.99927 7.90865C8.84165 7.79516 8.62998 7.75 8.5 7.75C8.37002 7.75 8.15835 7.79516 8.00073 7.90865Z" fill="black"/>
</svg>
