<svg width="24" height="24" viewBox="0 0 24 24" fill="none" xmlns="http://www.w3.org/2000/svg">
<path d="M19.75 2C19.75 1.58579 19.4142 1.25 19 1.25C18.5858 1.25 18.25 1.58579 18.25 2V4.25H16C15.5858 4.25 15.25 4.58579 15.25 5C15.25 5.41421 15.5858 5.75 16 5.75H18.25V8C18.25 8.41421 18.5858 8.75 19 8.75C19.4142 8.75 19.75 8.41421 19.75 8V5.75H22C22.4142 5.75 22.75 5.41421 22.75 5C22.75 4.58579 22.4142 4.25 22 4.25H19.75V2Z" fill="black"/>
<path fill-rule="evenodd" clip-rule="evenodd" d="M3.75 5C3.75 4.30964 4.30964 3.75 5 3.75H13C13.4142 3.75 13.75 3.41421 13.75 3C13.75 2.58579 13.4142 2.25 13 2.25H5C3.48122 2.25 2.25 3.48122 2.25 5V19C2.25 20.5188 3.48122 21.75 5 21.75H19C20.5188 21.75 21.75 20.5188 21.75 19V10.5C21.75 10.0858 21.4142 9.75 21 9.75C20.5858 9.75 20.25 10.0858 20.25 10.5V11.259C14.395 11.4005 10.7781 13.2003 8.68011 15.4177C6.8518 15.047 5.09592 15.0203 3.75 15.1478V5ZM14.5273 20.25H5C4.30964 20.25 3.75 19.6904 3.75 19V16.6553C5.06344 16.5157 6.89416 16.5369 8.77558 16.9733C10.8728 17.4597 12.9787 18.4474 14.5273 20.25ZM19 20.25H16.4092C14.8531 17.9339 12.6209 16.595 10.38 15.8637C12.2342 14.2476 15.3076 12.8847 20.25 12.7594V19C20.25 19.6904 19.6904 20.25 19 20.25Z" fill="black"/>
<path fill-rule="evenodd" clip-rule="evenodd" d="M8.5 6.25C8.12998 6.25 7.59165 6.35484 7.12427 6.69135C6.61865 7.0554 6.25 7.65556 6.25 8.5C6.25 9.34444 6.61865 9.9446 7.12427 10.3087C7.59165 10.6452 8.12998 10.75 8.5 10.75C8.87002 10.75 9.40835 10.6452 9.87573 10.3087C10.3814 9.9446 10.75 9.34444 10.75 8.5C10.75 7.65556 10.3814 7.0554 9.87573 6.69135C9.40835 6.35484 8.87002 6.25 8.5 6.25ZM7.75 8.5C7.75 8.14444 7.88135 7.9946 8.00073 7.90865C8.15835 7.79516 8.37002 7.75 8.5 7.75C8.62998 7.75 8.84165 7.79516 8.99927 7.90865C9.11865 7.9946 9.25 8.14444 9.25 8.5C9.25 8.85556 9.11865 9.0054 8.99927 9.09135C8.84165 9.20484 8.62998 9.25 8.5 9.25C8.37002 9.25 8.15835 9.20484 8.00073 9.09135C7.88135 9.0054 7.75 8.85556 7.75 8.5Z" fill="black"/>
</svg>
