<svg width="24" height="24" viewBox="0 0 24 24" fill="none" xmlns="http://www.w3.org/2000/svg">
<path d="M7.12427 6.69135C7.59165 6.35484 8.12998 6.25 8.5 6.25C8.87002 6.25 9.40835 6.35484 9.87573 6.69135C10.3814 7.0554 10.75 7.65556 10.75 8.5C10.75 9.34444 10.3814 9.9446 9.87573 10.3087C9.40835 10.6452 8.87002 10.75 8.5 10.75C8.12998 10.75 7.59165 10.6452 7.12427 10.3087C6.61865 9.9446 6.25 9.34444 6.25 8.5C6.25 7.65556 6.61865 7.0554 7.12427 6.69135Z" fill="black"/>
<path fill-rule="evenodd" clip-rule="evenodd" d="M5 2.25C3.48122 2.25 2.25 3.48122 2.25 5V19L2.25023 19.0355C2.2691 20.5381 3.49298 21.7503 5 21.7503H19C20.5188 21.7503 21.75 20.5191 21.75 19.0003V5C21.75 3.48122 20.5188 2.25 19 2.25H5ZM8.68011 15.4177C6.8518 15.047 5.09592 15.0203 3.75 15.1478V5C3.75 4.30964 4.30964 3.75 5 3.75H19C19.6904 3.75 20.25 4.30964 20.25 5V11.259C14.395 11.4005 10.7781 13.2003 8.68011 15.4177ZM10.4029 15.8715C10.0093 15.7424 9.5856 15.9569 9.45651 16.3504C9.32741 16.744 9.54181 17.1677 9.9354 17.2968C11.807 17.9107 13.5975 18.9745 14.9002 20.7147C15.1485 21.0463 15.6185 21.1139 15.9501 20.8656C16.2817 20.6174 16.3493 20.1474 16.1011 19.8158C14.5701 17.7706 12.4894 16.5559 10.4029 15.8715Z" fill="black"/>
</svg>
