<svg width="24" height="24" viewBox="0 0 24 24" fill="none" xmlns="http://www.w3.org/2000/svg">
<path d="M2.99983 6.62147C2.50244 6.6218 2.07123 6.25136 2.0081 5.7451C1.93976 5.19706 2.32864 4.69739 2.87668 4.62905C4.55986 4.41916 6.26928 4.29467 8.00042 4.26V3C8.00042 2.44772 8.44813 2 9.00042 2C9.5527 2 10.0004 2.44772 10.0004 3V4.26C10.1011 4.26202 10.2016 4.26435 10.3021 4.26697C11.0062 4.28534 11.7067 4.31856 12.4031 4.36635C13.3172 4.42906 14.2244 4.51685 15.1242 4.62905C15.6722 4.69739 16.0611 5.19706 15.9927 5.7451C15.931 6.23983 15.5178 6.60485 15.0349 6.62091C15.0162 6.62153 14.9974 6.62164 14.9786 6.62121C14.9448 6.62043 14.9107 6.61795 14.8765 6.61368C14.2894 6.54047 13.6989 6.47808 13.1052 6.42673C12.5166 8.62472 11.544 10.6651 10.2643 12.4715C10.5394 12.7968 10.8265 13.1116 11.1249 13.4152C11.512 13.8091 11.5065 14.4423 11.1126 14.8294C10.918 15.0207 10.6649 15.1161 10.4119 15.1162C10.1529 15.1162 9.89411 15.0164 9.69826 14.8171C9.45901 14.5736 9.22627 14.3238 9.00031 14.0678C7.44493 15.83 5.56746 17.3017 3.45939 18.3907C3.31273 18.4665 3.15601 18.5024 3.00158 18.5025C2.63926 18.5027 2.28951 18.3053 2.11176 17.9612C1.85827 17.4706 2.05056 16.8673 2.54124 16.6138C4.53482 15.5839 6.29916 14.1707 7.73631 12.4715C6.90843 11.3029 6.20907 10.0364 5.65904 8.69243C5.44985 8.1813 5.69462 7.59736 6.20576 7.38817C6.33058 7.33708 6.45974 7.31307 6.58673 7.3134C6.97982 7.31433 7.3521 7.5485 7.51023 7.93488C7.9183 8.93194 8.41849 9.88183 9.00032 10.7739C9.89358 9.40432 10.5944 7.89846 11.065 6.29452C10.8978 6.2873 10.7304 6.28095 10.5628 6.27547C10.0869 6.25994 9.60927 6.25147 9.1299 6.25017C9.08675 6.25006 9.04359 6.25 9.00042 6.25C9.00049 6.25 9.00035 6.25 9.00042 6.25" fill="black"/>
<path fill-rule="evenodd" clip-rule="evenodd" d="M10.4968 22.0002C10.3562 21.9998 10.2134 21.9696 10.0775 21.9062C9.57706 21.6726 9.36068 21.0776 9.59423 20.5771L14.8442 9.32711C15.0085 8.97504 15.3619 8.75 15.7504 8.75C16.1389 8.75 16.4923 8.97504 16.6566 9.32711L21.9066 20.5771C22.1402 21.0776 21.9238 21.6726 21.4233 21.9062C21.2874 21.9696 21.1445 21.9998 21.0038 22.0002C20.6262 22.0014 20.2642 21.7875 20.094 21.4229L18.9633 19H12.5373L11.4066 21.4229C11.2364 21.7875 10.8744 22.0014 10.4968 22.0002ZM15.7503 12.1149L13.4706 17H18.03L15.7503 12.1149Z" fill="black"/>
</svg>
