<svg width="24" height="24" viewBox="0 0 24 24" fill="none" xmlns="http://www.w3.org/2000/svg">
<path fill-rule="evenodd" clip-rule="evenodd" d="M12.75 2C12.75 1.58579 12.4142 1.25 12 1.25C11.5858 1.25 11.25 1.58579 11.25 2V3.28169C9.39712 3.43898 7.70883 4.17367 6.36578 5.30512L3.53033 2.46967C3.23744 2.17678 2.76256 2.17678 2.46967 2.46967C2.17678 2.76256 2.17678 3.23744 2.46967 3.53033L5.30512 6.36578L5.30254 6.36883L8.86906 9.93535L8.8713 9.93196L9.96928 11.0299L9.96746 11.0338L12.9662 14.0325L12.9701 14.0307L14.068 15.1287L14.0647 15.1309L17.6312 18.6975L17.6342 18.6949L20.4697 21.5303C20.7626 21.8232 21.2374 21.8232 21.5303 21.5303C21.8232 21.2374 21.8232 20.7626 21.5303 20.4697L18.6949 17.6342C19.8263 16.2912 20.561 14.6029 20.7183 12.75H22C22.4142 12.75 22.75 12.4142 22.75 12C22.75 11.5858 22.4142 11.25 22 11.25H20.7183C20.3589 7.01581 16.9842 3.64113 12.75 3.28169V2ZM9.93196 8.8713L11.0299 9.96928C11.3237 9.82871 11.6526 9.75 12 9.75C13.2426 9.75 14.25 10.7574 14.25 12C14.25 12.3474 14.1713 12.6763 14.0307 12.9701L15.1287 14.068C15.5213 13.4752 15.75 12.7643 15.75 12C15.75 9.92893 14.0711 8.25 12 8.25C11.2357 8.25 10.5248 8.47866 9.93196 8.8713Z" fill="black"/>
<path d="M16.3856 19.5732L12.5258 15.7134C12.354 15.7375 12.1785 15.75 12 15.75C9.92893 15.75 8.25 14.0711 8.25 12C8.25 11.8215 8.26247 11.646 8.28657 11.4742L4.42675 7.61437C3.79675 8.69994 3.39346 9.93342 3.28169 11.25H2C1.58579 11.25 1.25 11.5858 1.25 12C1.25 12.4142 1.58579 12.75 2 12.75H3.28169C3.64113 16.9842 7.01581 20.3589 11.25 20.7183V22C11.25 22.4142 11.5858 22.75 12 22.75C12.4142 22.75 12.75 22.4142 12.75 22V20.7183C14.0666 20.6065 15.3001 20.2033 16.3856 19.5732Z" fill="black"/>
</svg>
