<svg width="24" height="24" viewBox="0 0 24 24" fill="none" xmlns="http://www.w3.org/2000/svg">
<path fill-rule="evenodd" clip-rule="evenodd" d="M12.75 2C12.75 1.58579 12.4142 1.25 12 1.25C11.5858 1.25 11.25 1.58579 11.25 2V3.28172C9.39722 3.43912 7.70846 4.17419 6.3658 5.30514L3.53033 2.46967C3.23744 2.17678 2.76256 2.17678 2.46967 2.46967C2.17678 2.76256 2.17678 3.23744 2.46967 3.53033L20.4697 21.5303C20.7626 21.8232 21.2374 21.8232 21.5303 21.5303C21.8232 21.2374 21.8232 20.7626 21.5303 20.4697L18.6949 17.6342C19.8258 16.2915 20.5609 14.6028 20.7183 12.75H22C22.4142 12.75 22.75 12.4142 22.75 12C22.75 11.5858 22.4142 11.25 22 11.25H20.7183C20.3589 7.01581 16.9842 3.64113 12.75 3.28169V2ZM17.6295 16.5689C18.6433 15.3216 19.25 13.7322 19.25 12C19.25 7.99594 16.0041 4.75 12 4.75C10.2678 4.75 8.67839 5.35674 7.43111 6.37045L9.93204 8.87138C10.5247 8.479 11.236 8.25 12 8.25C14.0711 8.25 15.75 9.92893 15.75 12C15.75 12.764 15.521 13.4753 15.1286 14.068L17.6295 16.5689ZM14.0309 12.9702C14.1715 12.6765 14.25 12.3476 14.25 12C14.25 10.7574 13.2426 9.75 12 9.75C11.6524 9.75 11.3235 9.82853 11.0298 9.96914L14.0309 12.9702Z" fill="black"/>
<path d="M5.25562 9.33413C5.408 8.94897 5.2193 8.5132 4.83413 8.36082C4.44897 8.20843 4.0132 8.39714 3.86082 8.7823C3.55417 9.55737 3.35514 10.3863 3.28174 11.25H2C1.58579 11.25 1.25 11.5858 1.25 12C1.25 12.4142 1.58579 12.75 2 12.75H3.28169C3.64113 16.9842 7.01581 20.3589 11.25 20.7183V22C11.25 22.4142 11.5858 22.75 12 22.75C12.4142 22.75 12.75 22.4142 12.75 22V20.7183C13.6137 20.6449 14.4426 20.4458 15.2177 20.1392C15.6029 19.9868 15.7916 19.551 15.6392 19.1659C15.4868 18.7807 15.051 18.592 14.6659 18.7444C13.8417 19.0705 12.9427 19.25 12 19.25C7.99594 19.25 4.75 16.0041 4.75 12C4.75 11.0573 4.92955 10.1583 5.25562 9.33413Z" fill="black"/>
</svg>
