<svg width="24" height="24" viewBox="0 0 24 24" fill="none" xmlns="http://www.w3.org/2000/svg">
<path fill-rule="evenodd" clip-rule="evenodd" d="M19.25 4.72329C19.25 4.53133 19.0426 4.41099 18.876 4.50623L13.75 7.43535V14.5649L18.876 17.494C19.0426 17.5892 19.25 17.4689 19.25 17.2769V4.72329ZM12.25 14.2501V7.75011H7C5.20507 7.75011 3.75 9.20518 3.75 11.0001C3.75 12.795 5.20507 14.2501 7 14.2501H12.25ZM12.8008 6.25011L18.1318 3.20386C19.2984 2.53721 20.75 3.3796 20.75 4.72329V17.2769C20.75 18.6206 19.2984 19.463 18.1318 18.7964L12.8008 15.7501H10.75V19.5001C10.75 20.7428 9.74264 21.7501 8.5 21.7501C7.25736 21.7501 6.25 20.7428 6.25 19.5001V15.6912C3.98301 15.3316 2.25 13.3683 2.25 11.0001C2.25 8.37676 4.37665 6.25011 7 6.25011H12.8008ZM7.75 15.7501V19.5001C7.75 19.9143 8.08579 20.2501 8.5 20.2501C8.91421 20.2501 9.25 19.9143 9.25 19.5001V15.7501H7.75Z" fill="black"/>
</svg>
