<svg width="24" height="24" viewBox="0 0 24 24" fill="none" xmlns="http://www.w3.org/2000/svg">
<path fill-rule="evenodd" clip-rule="evenodd" d="M20.75 4.72329C20.75 3.3796 19.2984 2.53721 18.1318 3.20386L13.5502 5.8219C13.0591 6.10251 12.5033 6.25011 11.9377 6.25011H7C4.37665 6.25011 2.25 8.37676 2.25 11.0001C2.25 13.3683 3.98301 15.3316 6.25 15.6912V19.5C6.25 20.7426 7.25736 21.75 8.5 21.75C9.74264 21.75 10.75 20.7426 10.75 19.5V15.7501H11.9377C12.5033 15.7501 13.0591 15.8977 13.5502 16.1783L18.1318 18.7964C19.2984 19.463 20.75 18.6206 20.75 17.2769V4.72329ZM7.75 19.5V15.7501H9.25V19.5C9.25 19.9142 8.91421 20.25 8.5 20.25C8.08579 20.25 7.75 19.9142 7.75 19.5ZM13.75 7.75C13.75 7.33579 13.4142 7 13 7C12.5858 7 12.25 7.33579 12.25 7.75V14.25C12.25 14.6642 12.5858 15 13 15C13.4142 15 13.75 14.6642 13.75 14.25V7.75Z" fill="black"/>
</svg>
