<svg width="24" height="24" viewBox="0 0 24 24" fill="none" xmlns="http://www.w3.org/2000/svg">
<path fill-rule="evenodd" clip-rule="evenodd" d="M19.0711 4.92893C15.1658 1.02369 8.83418 1.02369 4.92893 4.92893C1.02369 8.83418 1.02369 15.1658 4.92893 19.0711C8.83418 22.9763 15.1658 22.9763 19.0711 19.0711C22.9763 15.1658 22.9763 8.83418 19.0711 4.92893ZM18.3202 16.906L7.09402 5.6798C10.2324 3.23731 14.7721 3.45842 17.6569 6.34315C20.5416 9.22787 20.7627 13.7676 18.3202 16.906ZM5.6798 7.09402L16.906 18.3202C13.7676 20.7627 9.22787 20.5416 6.34315 17.6569C3.45842 14.7721 3.23731 10.2324 5.6798 7.09402Z" fill="black"/>
</svg>
