<svg width="24" height="24" viewBox="0 0 24 24" fill="none" xmlns="http://www.w3.org/2000/svg">
<path fill-rule="evenodd" clip-rule="evenodd" d="M15.7626 3.17663C16.446 2.49321 17.554 2.49321 18.2374 3.17663L20.8232 5.76241C21.5066 6.44583 21.5066 7.55387 20.8232 8.23729L8.82322 20.2373C8.49503 20.5655 8.04992 20.7498 7.58579 20.7498H5C4.0335 20.7498 3.25 19.9663 3.25 18.9998V16.4141C3.25 15.9499 3.43437 15.5048 3.76256 15.1766L15.7626 3.17663ZM17.1768 4.23729C17.0791 4.13966 16.9209 4.13965 16.8232 4.23729L15.0607 5.99985L18 8.93919L19.7626 7.17663C19.8602 7.079 19.8602 6.9207 19.7626 6.82307L17.1768 4.23729ZM16.9393 9.99985L14 7.06051L4.82322 16.2373C4.77634 16.2842 4.75 16.3478 4.75 16.4141V18.9998C4.75 19.1379 4.86193 19.2498 5 19.2498H7.58579C7.65209 19.2498 7.71568 19.2235 7.76256 19.1766L16.9393 9.99985Z" fill="black"/>
</svg>
