<svg width="24" height="24" viewBox="0 0 24 24" fill="none" xmlns="http://www.w3.org/2000/svg">
<path d="M10 2.25C7.1005 2.25 4.75 4.6005 4.75 7.5C4.75 10.3995 7.1005 12.75 10 12.75C12.8995 12.75 15.25 10.3995 15.25 7.5C15.25 4.6005 12.8995 2.25 10 2.25Z" fill="black"/>
<path d="M15.3285 3.13416C15.5129 2.76323 15.963 2.61196 16.3339 2.7963C18.0608 3.65448 19.2502 5.43774 19.2502 7.50018C19.2502 9.56261 18.0608 11.3459 16.3339 12.2041C15.963 12.3884 15.5129 12.2371 15.3285 11.8662C15.1442 11.4953 15.2955 11.0451 15.6664 10.8608C16.903 10.2463 17.7502 8.97147 17.7502 7.50018C17.7502 6.02889 16.903 4.7541 15.6664 4.13957C15.2955 3.95524 15.1442 3.5051 15.3285 3.13416Z" fill="black"/>
<path d="M17.33 15.1635C17.5159 14.7934 17.9667 14.644 18.3368 14.83C19.8795 15.605 21.6294 16.9859 22.6321 18.5961C22.6461 18.618 22.6591 18.6409 22.671 18.6648C23.3798 20.0823 22.349 21.7502 20.7641 21.7502H20.0002C19.586 21.7502 19.2502 21.4144 19.2502 21.0002C19.2502 20.586 19.586 20.2502 20.0002 20.2502H20.7641C21.2241 20.2502 21.5267 19.7761 21.3418 19.3619C20.5167 18.0534 19.0182 16.8509 17.6635 16.1704C17.2934 15.9844 17.144 15.5336 17.33 15.1635Z" fill="black"/>
<path d="M18.2798 18.4931C14.4052 12.4659 5.5947 12.4659 1.72006 18.4931C0.815642 19.8999 1.82579 21.7502 3.49829 21.7502H16.5016C18.1741 21.7502 19.1842 19.8999 18.2798 18.4931Z" fill="black"/>
</svg>
