<svg width="24" height="24" viewBox="0 0 24 24" fill="none" xmlns="http://www.w3.org/2000/svg">
<path fill-rule="evenodd" clip-rule="evenodd" d="M10 3.75C7.92893 3.75 6.25 5.42893 6.25 7.5C6.25 9.57107 7.92893 11.25 10 11.25C12.0711 11.25 13.75 9.57107 13.75 7.5C13.75 5.42893 12.0711 3.75 10 3.75ZM4.75 7.5C4.75 4.6005 7.1005 2.25 10 2.25C12.8995 2.25 15.25 4.6005 15.25 7.5C15.25 10.3995 12.8995 12.75 10 12.75C7.1005 12.75 4.75 10.3995 4.75 7.5ZM15.3285 3.13416C15.5129 2.76323 15.963 2.61196 16.3339 2.7963C18.0608 3.65448 19.2502 5.43774 19.2502 7.50018C19.2502 9.56261 18.0608 11.3459 16.3339 12.2041C15.963 12.3884 15.5129 12.2371 15.3285 11.8662C15.1442 11.4953 15.2955 11.0451 15.6664 10.8608C16.903 10.2463 17.7502 8.97147 17.7502 7.50018C17.7502 6.02889 16.903 4.7541 15.6664 4.13957C15.2955 3.95524 15.1442 3.5051 15.3285 3.13416ZM17.33 15.1635C17.5159 14.7934 17.9667 14.644 18.3368 14.83C19.8795 15.605 21.6294 16.9859 22.6321 18.5961C22.6461 18.618 22.6591 18.6409 22.671 18.6648C23.3798 20.0823 22.349 21.7502 20.7641 21.7502H20.0002C19.586 21.7502 19.2502 21.4144 19.2502 21.0002C19.2502 20.586 19.586 20.2502 20.0002 20.2502H20.7641C21.2241 20.2502 21.5267 19.7761 21.3418 19.3619C20.5167 18.0534 19.0182 16.8509 17.6635 16.1704C17.2934 15.9844 17.144 15.5336 17.33 15.1635ZM2.98183 19.3042C6.26601 14.1955 13.7339 14.1955 17.0181 19.3042C17.2807 19.7128 16.9873 20.2502 16.5016 20.2502H3.49829C3.01254 20.2502 2.71915 19.7128 2.98183 19.3042ZM18.2798 18.4931C14.4052 12.4659 5.5947 12.4659 1.72006 18.4931C0.815642 19.8999 1.82579 21.7502 3.49829 21.7502H16.5016C18.1741 21.7502 19.1842 19.8999 18.2798 18.4931Z" fill="black"/>
</svg>
