<svg width="24" height="24" viewBox="0 0 24 24" fill="none" xmlns="http://www.w3.org/2000/svg">
<path d="M4.75 7.5C4.75 4.6005 7.1005 2.25 10 2.25C12.8995 2.25 15.25 4.6005 15.25 7.5C15.25 10.3995 12.8995 12.75 10 12.75C7.1005 12.75 4.75 10.3995 4.75 7.5Z" fill="black"/>
<path d="M1.72006 18.4931C5.5947 12.4659 14.4052 12.4659 18.2798 18.4931C19.1842 19.8999 18.1741 21.7502 16.5016 21.7502H3.49829C1.82579 21.7502 0.815642 19.8999 1.72006 18.4931Z" fill="black"/>
<path d="M17 11.25C16.5858 11.25 16.25 11.5858 16.25 12C16.25 12.4142 16.5858 12.75 17 12.75H23C23.4142 12.75 23.75 12.4142 23.75 12C23.75 11.5858 23.4142 11.25 23 11.25H17Z" fill="black"/>
</svg>
