<svg width="24" height="24" viewBox="0 0 24 24" fill="none" xmlns="http://www.w3.org/2000/svg">
<path fill-rule="evenodd" clip-rule="evenodd" d="M4.75 7.5C4.75 4.6005 7.1005 2.25 10 2.25C12.8995 2.25 15.25 4.6005 15.25 7.5C15.25 10.3995 12.8995 12.75 10 12.75C7.1005 12.75 4.75 10.3995 4.75 7.5ZM10 3.75C7.92893 3.75 6.25 5.42893 6.25 7.5C6.25 9.57107 7.92893 11.25 10 11.25C12.0711 11.25 13.75 9.57107 13.75 7.5C13.75 5.42893 12.0711 3.75 10 3.75Z" fill="black"/>
<path fill-rule="evenodd" clip-rule="evenodd" d="M1.72006 18.4931C5.5947 12.4659 14.4052 12.4659 18.2798 18.4931C19.1842 19.8999 18.1741 21.7502 16.5016 21.7502H3.49829C1.82579 21.7502 0.815642 19.8999 1.72006 18.4931ZM17.0181 19.3042C13.7339 14.1955 6.26601 14.1955 2.98183 19.3042C2.71915 19.7128 3.01254 20.2502 3.49829 20.2502H16.5016C16.9873 20.2502 17.2807 19.7128 17.0181 19.3042Z" fill="black"/>
<path d="M17 11.25C16.5858 11.25 16.25 11.5858 16.25 12C16.25 12.4142 16.5858 12.75 17 12.75H23C23.4142 12.75 23.75 12.4142 23.75 12C23.75 11.5858 23.4142 11.25 23 11.25H17Z" fill="black"/>
</svg>
