<svg width="24" height="24" viewBox="0 0 24 24" fill="none" xmlns="http://www.w3.org/2000/svg">
<path fill-rule="evenodd" clip-rule="evenodd" d="M8.25 7.5C8.25 5.42893 9.92893 3.75 12 3.75C14.0711 3.75 15.75 5.42893 15.75 7.5C15.75 9.57107 14.0711 11.25 12 11.25C9.92893 11.25 8.25 9.57107 8.25 7.5ZM12 2.25C9.1005 2.25 6.75 4.6005 6.75 7.5C6.75 10.3995 9.1005 12.75 12 12.75C14.8995 12.75 17.25 10.3995 17.25 7.5C17.25 4.6005 14.8995 2.25 12 2.25ZM4.98183 19.3042C8.26601 14.1955 15.7339 14.1955 19.0181 19.3042C19.2807 19.7128 18.9873 20.2502 18.5016 20.2502H5.49829C5.01254 20.2502 4.71915 19.7128 4.98183 19.3042ZM20.2798 18.4931C16.4052 12.4659 7.5947 12.4659 3.72006 18.4931C2.81564 19.8999 3.82579 21.7502 5.49829 21.7502H18.5016C20.1741 21.7502 21.1842 19.8999 20.2798 18.4931Z" fill="black"/>
</svg>
