<svg width="24" height="24" viewBox="0 0 24 24" fill="none" xmlns="http://www.w3.org/2000/svg">
<path d="M6.79166 1.93049C5.91297 1.05181 4.48835 1.05182 3.60967 1.93049L2.74358 2.79659C2.26116 3.27901 1.81483 3.89123 1.62136 4.65071C1.079 6.77989 0.585118 11.9874 6.08455 17.4868C11.7637 23.166 17.1287 22.4525 19.1148 21.8982C19.7425 21.7231 20.2474 21.3552 20.6459 20.9567L21.6409 19.9617C22.5196 19.083 22.5196 17.6584 21.6409 16.7797L19.3499 14.4887C18.4712 13.61 17.0466 13.61 16.1679 14.4887L14.9201 15.7365C14.8756 15.781 14.8407 15.8046 14.8193 15.8155C14.8124 15.8191 14.8078 15.8209 14.8054 15.8217C14.3359 15.8264 12.7845 15.6373 10.3593 13.2121C7.93412 10.7869 7.74499 9.23554 7.7497 8.76601C7.75053 8.76355 7.75231 8.759 7.75586 8.75207C7.76682 8.73073 7.79041 8.69577 7.83487 8.65132L9.08268 7.4035C9.96136 6.52482 9.96136 5.1002 9.08268 4.22152L6.79166 1.93049Z" fill="black"/>
</svg>
