<svg width="24" height="24" viewBox="0 0 24 24" fill="none" xmlns="http://www.w3.org/2000/svg">
<path fill-rule="evenodd" clip-rule="evenodd" d="M3.60919 1.93001C4.48786 1.05133 5.91249 1.05132 6.79117 1.93001L9.08219 4.22103C9.96087 5.09971 9.96087 6.52433 9.08219 7.40301L7.83438 8.65083C7.78992 8.69528 7.76633 8.73024 7.75538 8.75158C7.75182 8.75851 7.75004 8.76306 7.74921 8.76552C7.7445 9.23505 7.93363 10.7864 10.3588 13.2116C12.784 15.6368 14.3354 15.8259 14.8049 15.8212C14.8073 15.8204 14.8119 15.8186 14.8188 15.815C14.8402 15.8041 14.8751 15.7805 14.9196 15.736L16.1674 14.4882C17.0461 13.6095 18.4707 13.6095 19.3494 14.4882L21.6404 16.7792C22.5191 17.6579 22.5191 19.0826 21.6404 19.9612L20.6454 20.9562C20.2469 21.3547 19.742 21.7226 19.1143 21.8978C17.1282 22.4521 11.7632 23.1655 6.08406 17.4864C0.58463 11.9869 1.07851 6.7794 1.62087 4.65022C1.81434 3.89074 2.26067 3.27852 2.74309 2.7961L3.60919 1.93001ZM5.73051 2.99067C5.43761 2.69777 4.96274 2.69777 4.66985 2.99067L3.80375 3.85676C3.4338 4.22671 3.17855 4.61185 3.07446 5.02049C2.63239 6.75593 2.099 11.38 7.14472 16.4257C12.351 21.6319 17.111 20.8995 18.7111 20.453C19.0122 20.3689 19.3013 20.179 19.5847 19.8956L20.5797 18.9006C20.8726 18.6077 20.8726 18.1328 20.5797 17.8399L18.2887 15.5489C17.9958 15.256 17.521 15.256 17.2281 15.5489L15.9802 16.7967C15.7319 17.045 15.3419 17.3144 14.8287 17.321C13.8595 17.3335 11.9372 16.9113 9.29818 14.2722C6.65915 11.6332 6.23692 9.71091 6.24939 8.74168C6.25599 8.22855 6.52537 7.83851 6.77372 7.59017L8.02153 6.34235C8.31443 6.04946 8.31443 5.57458 8.02153 5.28169L5.73051 2.99067Z" fill="black"/>
</svg>
