<svg width="24" height="24" viewBox="0 0 24 24" fill="none" xmlns="http://www.w3.org/2000/svg">
<path d="M7 9.25C6.58579 9.25 6.25 9.58579 6.25 10C6.25 10.4142 6.58579 10.75 7 10.75H8C8.41421 10.75 8.75 10.4142 8.75 10C8.75 9.58579 8.41421 9.25 8 9.25H7Z" fill="black"/>
<path fill-rule="evenodd" clip-rule="evenodd" d="M18.75 5V6.25H19C20.5188 6.25 21.75 7.48122 21.75 9V15C21.75 16.5188 20.5188 17.75 19 17.75H17.75V19C17.75 20.5188 16.5188 21.75 15 21.75H9C7.48122 21.75 6.25 20.5188 6.25 19V17.75H5C3.48122 17.75 2.25 16.5188 2.25 15V9C2.25 7.48122 3.48122 6.25 5 6.25H5.25V5C5.25 3.48122 6.48122 2.25 8 2.25H16C17.5188 2.25 18.75 3.48122 18.75 5ZM6.75 5C6.75 4.30964 7.30964 3.75 8 3.75H16C16.6904 3.75 17.25 4.30964 17.25 5V6.25H6.75V5ZM19 16.25H17.75V15C17.75 13.4812 16.5188 12.25 15 12.25H9C7.48122 12.25 6.25 13.4812 6.25 15V16.25H5C4.30964 16.25 3.75 15.6904 3.75 15V9C3.75 8.30964 4.30964 7.75 5 7.75H19C19.6904 7.75 20.25 8.30964 20.25 9V15C20.25 15.6904 19.6904 16.25 19 16.25ZM7.75 15C7.75 14.3096 8.30964 13.75 9 13.75H15C15.6904 13.75 16.25 14.3096 16.25 15V19C16.25 19.6904 15.6904 20.25 15 20.25H9C8.30964 20.25 7.75 19.6904 7.75 19V15Z" fill="black"/>
</svg>
