<svg width="24" height="24" viewBox="0 0 24 24" fill="none" xmlns="http://www.w3.org/2000/svg">
<path fill-rule="evenodd" clip-rule="evenodd" d="M6.85853 4.38474C7.19445 3.1118 8.54671 2.39794 9.78728 2.83866L11.7487 3.53547C11.9111 3.59317 12.0884 3.59317 12.2508 3.53547L14.2122 2.83866C15.4528 2.39794 16.805 3.1118 17.141 4.38474L17.5229 5.83201C17.5861 6.07156 17.7635 6.26444 17.997 6.34737L19.7862 6.98302C20.9867 7.40951 21.5939 8.74673 21.125 9.9313L20.4156 11.7235C20.3454 11.9008 20.3454 12.0982 20.4156 12.2756L21.125 14.0678C21.5939 15.2524 20.9867 16.5896 19.7862 17.0161L17.997 17.6517C17.7635 17.7346 17.5861 17.9275 17.5229 18.1671L17.141 19.6143C16.805 20.8873 15.4528 21.6011 14.2122 21.1604L12.2508 20.4636C12.0884 20.4059 11.9111 20.4059 11.7487 20.4636L9.78728 21.1604C8.54671 21.6011 7.19445 20.8873 6.85853 19.6143L6.47661 18.1671C6.4134 17.9275 6.23597 17.7346 6.00251 17.6517L4.21329 17.0161C3.0128 16.5896 2.40556 15.2524 2.87445 14.0678L3.58386 12.2756C3.65406 12.0982 3.65406 11.9008 3.58386 11.7235L2.87445 9.9313C2.40556 8.74673 3.0128 7.40951 4.21329 6.98302L6.00251 6.34737C6.23597 6.26444 6.4134 6.07156 6.47661 5.83201L6.85853 4.38474ZM16.1297 8.92974C16.4226 8.63685 16.4226 8.16198 16.1297 7.86908C15.8369 7.57619 15.362 7.57619 15.0691 7.86908L7.86908 15.0691C7.57619 15.362 7.57619 15.8368 7.86908 16.1297C8.16198 16.4226 8.63685 16.4226 8.92974 16.1297L16.1297 8.92974ZM9.29941 8.09941C8.63667 8.09941 8.09941 8.63668 8.09941 9.29942C8.09941 9.96216 8.63668 10.4994 9.29941 10.4994C9.96215 10.4994 10.4994 9.96216 10.4994 9.29942C10.4994 8.63668 9.96216 8.09941 9.29941 8.09941ZM14.6994 13.4994C14.0367 13.4994 13.4994 14.0366 13.4994 14.6994C13.4994 15.3621 14.0367 15.8994 14.6994 15.8994C15.3622 15.8994 15.8994 15.3621 15.8994 14.6994C15.8994 14.0366 15.3621 13.4994 14.6994 13.4994Z" fill="black"/>
</svg>
