<svg width="24" height="24" viewBox="0 0 24 24" fill="none" xmlns="http://www.w3.org/2000/svg">
<path d="M16.1297 8.92974C16.4226 8.63685 16.4226 8.16198 16.1297 7.86908C15.8369 7.57619 15.362 7.57619 15.0691 7.86908L7.86908 15.0691C7.57619 15.362 7.57619 15.8368 7.86908 16.1297C8.16198 16.4226 8.63685 16.4226 8.92974 16.1297L16.1297 8.92974Z" fill="black"/>
<path d="M9.29941 8.09941C8.63667 8.09941 8.09941 8.63668 8.09941 9.29942C8.09941 9.96216 8.63668 10.4994 9.29941 10.4994C9.96215 10.4994 10.4994 9.96216 10.4994 9.29942C10.4994 8.63668 9.96216 8.09941 9.29941 8.09941Z" fill="black"/>
<path d="M14.6994 13.4994C14.0367 13.4994 13.4994 14.0366 13.4994 14.6994C13.4994 15.3621 14.0367 15.8994 14.6994 15.8994C15.3622 15.8994 15.8994 15.3621 15.8994 14.6994C15.8994 14.0366 15.3621 13.4994 14.6994 13.4994Z" fill="black"/>
<path fill-rule="evenodd" clip-rule="evenodd" d="M9.78728 2.83866C8.54671 2.39794 7.19445 3.1118 6.85853 4.38474L6.47661 5.83201C6.4134 6.07156 6.23597 6.26443 6.00251 6.34737L4.21329 6.98302C3.0128 7.40951 2.40556 8.74673 2.87445 9.9313L3.58386 11.7235C3.65405 11.9008 3.65405 12.0982 3.58386 12.2756L2.87445 14.0678C2.40556 15.2524 3.0128 16.5896 4.21329 17.0161L6.00251 17.6517C6.23597 17.7346 6.4134 17.9275 6.47661 18.1671L6.85853 19.6143C7.19445 20.8873 8.54671 21.6011 9.78728 21.1604L11.7487 20.4636C11.9111 20.4059 12.0884 20.4059 12.2508 20.4636L14.2122 21.1604C15.4528 21.6011 16.805 20.8873 17.141 19.6143L17.5229 18.1671C17.5861 17.9275 17.7635 17.7346 17.997 17.6517L19.7862 17.0161C20.9867 16.5896 21.5939 15.2524 21.125 14.0678L20.4156 12.2756C20.3454 12.0982 20.3454 11.9008 20.4156 11.7235L21.125 9.9313C21.5939 8.74673 20.9867 7.40951 19.7862 6.98302L17.997 6.34737C17.7635 6.26443 17.5861 6.07156 17.5229 5.83201L17.141 4.38474C16.805 3.1118 15.4528 2.39794 14.2122 2.83866L12.2508 3.53547C12.0884 3.59317 11.9111 3.59317 11.7487 3.53547L9.78728 2.83866ZM8.30888 4.76748C8.42085 4.34316 8.87161 4.10521 9.28513 4.25212L11.2465 4.94893C11.7338 5.12202 12.2657 5.12202 12.753 4.94893L14.7144 4.25212C15.1279 4.10521 15.5786 4.34316 15.6906 4.76748L16.0725 6.21474C16.2622 6.93339 16.7945 7.51201 17.4948 7.76082L19.284 8.39647C19.6842 8.53863 19.8866 8.98437 19.7303 9.37923L19.0209 11.1714C18.8103 11.7034 18.8103 12.2957 19.0209 12.8277L19.7303 14.6199C19.8866 15.0147 19.6842 15.4605 19.284 15.6026L17.4948 16.2383C16.7945 16.4871 16.2622 17.0657 16.0725 17.7843L15.6906 19.2316C15.5786 19.6559 15.1279 19.8939 14.7144 19.747L12.753 19.0502C12.2657 18.8771 11.7338 18.8771 11.2465 19.0502L9.28513 19.747C8.87161 19.8939 8.42085 19.6559 8.30888 19.2316L7.92696 17.7843C7.73732 17.0657 7.20502 16.4871 6.50466 16.2383L4.71544 15.6026C4.31528 15.4605 4.11286 15.0147 4.26916 14.6199L4.97857 12.8277C5.18915 12.2957 5.18915 11.7034 4.97857 11.1714L4.26916 9.37923C4.11286 8.98437 4.31528 8.53863 4.71544 8.39647L6.50466 7.76082C7.20502 7.51201 7.73732 6.93339 7.92696 6.21474L8.30888 4.76748Z" fill="black"/>
</svg>
