<svg width="24" height="24" viewBox="0 0 24 24" fill="none" xmlns="http://www.w3.org/2000/svg">
<path d="M11.5263 2.47363C6.26508 2.47363 2 6.73871 2 11.9999C2 17.2612 6.26508 21.5263 11.5263 21.5263C15.8708 21.5263 19.5337 18.6189 20.6802 14.6456C20.8333 14.115 20.5273 13.5607 19.9966 13.4076C19.466 13.2544 18.9117 13.5605 18.7586 14.0911C17.8525 17.2313 14.9561 19.5263 11.5263 19.5263C7.36965 19.5263 4 16.1566 4 11.9999C4 7.84328 7.36965 4.47363 11.5263 4.47363C13.6059 4.47363 15.4868 5.31571 16.8501 6.67988C17.5412 7.37145 18.3236 8.30147 18.9667 9.10521H15.3158C14.7635 9.10521 14.3158 9.55293 14.3158 10.1052C14.3158 10.6575 14.7635 11.1052 15.3158 11.1052H21C21.5523 11.1052 22 10.6575 22 10.1052V4.421C22 3.86872 21.5523 3.421 21 3.421C20.4477 3.421 20 3.86872 20 4.421V7.20606C19.4523 6.54416 18.8395 5.84126 18.2648 5.26616C16.5418 3.54196 14.1578 2.47363 11.5263 2.47363Z" fill="black"/>
</svg>
