<svg width="24" height="24" viewBox="0 0 24 24" fill="none" xmlns="http://www.w3.org/2000/svg">
<path fill-rule="evenodd" clip-rule="evenodd" d="M2.25 11.9999C2.25 6.87678 6.40315 2.72363 11.5263 2.72363C14.0889 2.72363 16.4099 3.76368 18.0879 5.44287C18.8152 6.17063 19.6077 7.10942 20.25 7.90822V4.421C20.25 4.00679 20.5858 3.671 21 3.671C21.4142 3.671 21.75 4.00679 21.75 4.421V10.1052C21.75 10.5194 21.4142 10.8552 21 10.8552H15.3158C14.9016 10.8552 14.5658 10.5194 14.5658 10.1052C14.5658 9.691 14.9016 9.35521 15.3158 9.35521H19.4838C19.4153 9.2679 19.344 9.17758 19.2703 9.08489C18.6068 8.25021 17.7675 7.24423 17.0269 6.50317C15.6187 5.09399 13.6749 4.22363 11.5263 4.22363C7.23158 4.22363 3.75 7.70521 3.75 11.9999C3.75 16.2947 7.23158 19.7763 11.5263 19.7763C15.0704 19.7763 18.0626 17.4047 18.9988 14.1604C19.1136 13.7625 19.5293 13.5329 19.9273 13.6478C20.3253 13.7626 20.5548 14.1783 20.44 14.5763C19.3235 18.4454 15.7565 21.2763 11.5263 21.2763C6.40315 21.2763 2.25 17.1231 2.25 11.9999Z" fill="black"/>
</svg>
