<svg width="24" height="24" viewBox="0 0 24 24" fill="none" xmlns="http://www.w3.org/2000/svg">
<path fill-rule="evenodd" clip-rule="evenodd" d="M12 2.75C10.7574 2.75 9.75 3.75736 9.75 5C9.75 5.67703 10.0481 6.28357 10.5227 6.69717C10.9184 7.04197 11.434 7.25 12 7.25C12.566 7.25 13.0816 7.04197 13.4773 6.69717C13.9519 6.28357 14.25 5.67703 14.25 5C14.25 3.75736 13.2426 2.75 12 2.75ZM8.32501 4.25C8.67247 2.53832 10.1858 1.25 12 1.25C13.8142 1.25 15.3275 2.53832 15.675 4.25H18C18.4142 4.25 18.75 4.58579 18.75 5C18.75 5.41421 18.4142 5.75 18 5.75H15.6749C15.5888 6.17357 15.4314 6.57124 15.2158 6.92976C16.4934 7.51826 17.5205 8.42291 18.2663 9.38213C19.1881 10.5678 19.75 11.9301 19.75 13V18C19.75 19.5188 18.5188 20.75 17 20.75H14.6465C14.32 21.9043 13.2588 22.75 12 22.75C10.7412 22.75 9.67998 21.9043 9.35352 20.75H7C5.48122 20.75 4.25 19.5188 4.25 18V13C4.25 11.9301 4.81195 10.5678 5.73373 9.38213C6.47947 8.42291 7.50659 7.51826 8.78416 6.92976C8.56862 6.57124 8.41116 6.17357 8.3251 5.75H6C5.58579 5.75 5.25 5.41421 5.25 5C5.25 4.58579 5.58579 4.25 6 4.25H8.32501ZM9.88613 8.09775C8.64407 8.54581 7.6355 9.37984 6.91795 10.3028C6.11751 11.3324 5.75 12.3778 5.75 13V18C5.75 18.6904 6.30964 19.25 7 19.25H9.25V15C9.25 13.4812 10.4812 12.25 12 12.25C13.5188 12.25 14.75 13.4812 14.75 15V19.25H17C17.6904 19.25 18.25 18.6904 18.25 18V13C18.25 12.3778 17.8825 11.3324 17.0821 10.3028C16.3645 9.37984 15.3559 8.54581 14.1139 8.09775C13.512 8.50903 12.7835 8.75 12 8.75C11.2165 8.75 10.4879 8.50903 9.88613 8.09775ZM13.25 20V15C13.25 14.3096 12.6904 13.75 12 13.75C11.3096 13.75 10.75 14.3096 10.75 15V20C10.75 20.6904 11.3096 21.25 12 21.25C12.6904 21.25 13.25 20.6904 13.25 20Z" fill="black"/>
</svg>
