<svg width="24" height="24" viewBox="0 0 24 24" fill="none" xmlns="http://www.w3.org/2000/svg">
<path fill-rule="evenodd" clip-rule="evenodd" d="M12 1.25C10.1858 1.25 8.67247 2.53832 8.32501 4.25H6C5.58579 4.25 5.25 4.58579 5.25 5C5.25 5.41421 5.58579 5.75 6 5.75H8.3251C8.41116 6.17357 8.56862 6.57124 8.78416 6.92976C7.50659 7.51826 6.47947 8.42291 5.73373 9.38213C4.81195 10.5678 4.25 11.9301 4.25 13V18C4.25 19.5188 5.48122 20.75 7 20.75H9.35352C9.67998 21.9043 10.7412 22.75 12 22.75C13.2588 22.75 14.32 21.9043 14.6465 20.75H17C18.5188 20.75 19.75 19.5188 19.75 18V13C19.75 11.9301 19.1881 10.5678 18.2663 9.38213C17.5205 8.42291 16.4934 7.51826 15.2158 6.92976C15.4314 6.57124 15.5888 6.17357 15.6749 5.75H18C18.4142 5.75 18.75 5.41421 18.75 5C18.75 4.58579 18.4142 4.25 18 4.25H15.675C15.3275 2.53832 13.8142 1.25 12 1.25ZM9.75 5C9.75 3.75736 10.7574 2.75 12 2.75C13.2426 2.75 14.25 3.75736 14.25 5C14.25 5.67703 13.9519 6.28357 13.4773 6.69717C13.0816 7.04197 12.566 7.25 12 7.25C11.434 7.25 10.9184 7.04197 10.5227 6.69717C10.0481 6.28357 9.75 5.67703 9.75 5ZM13.25 15V20C13.25 20.6904 12.6904 21.25 12 21.25C11.3096 21.25 10.75 20.6904 10.75 20V15C10.75 14.3096 11.3096 13.75 12 13.75C12.6904 13.75 13.25 14.3096 13.25 15Z" fill="black"/>
</svg>
