<svg width="24" height="24" viewBox="0 0 24 24" fill="none" xmlns="http://www.w3.org/2000/svg">
<path fill-rule="evenodd" clip-rule="evenodd" d="M13.3286 4.30087C13.0401 4.41287 12.85 4.69056 12.85 5.00003V7.78259C11.1743 7.92377 8.99967 8.54315 7.13598 10.0108C4.94578 11.7356 3.25 14.5827 3.25 19C3.25 19.4142 3.58579 19.75 4 19.75C4.41421 19.75 4.75 19.4142 4.75 19C4.75 18.8202 4.94126 18.1488 6.25881 17.4816C7.46578 16.8705 9.5187 16.3287 12.85 16.2579V19C12.85 19.3095 13.0401 19.5872 13.3286 19.6992C13.617 19.8112 13.9447 19.7345 14.1535 19.5061L20.5535 12.5061C20.8155 12.2196 20.8155 11.7805 20.5535 11.494L14.1535 4.49395C13.9447 4.26556 13.617 4.18887 13.3286 4.30087ZM4.97533 16.4891C5.46009 13.961 6.67162 12.2858 8.06402 11.1893C9.90741 9.73758 12.1345 9.25003 13.6 9.25003C14.0142 9.25003 14.35 8.91424 14.35 8.50003V6.93183L18.9838 12L14.35 17.0682V15.5C14.35 15.0858 14.0142 14.75 13.6 14.75C9.69713 14.75 7.16613 15.3409 5.58119 16.1434C5.36391 16.2534 5.16198 16.369 4.97533 16.4891Z" fill="black"/>
</svg>
