<svg width="24" height="24" viewBox="0 0 24 24" fill="none" xmlns="http://www.w3.org/2000/svg">
<path d="M12.85 5.00003C12.85 4.69056 13.0401 4.41287 13.3286 4.30087C13.617 4.18887 13.9447 4.26556 14.1535 4.49395L20.5535 11.494C20.8155 11.7805 20.8155 12.2196 20.5535 12.5061L14.1535 19.5061C13.9447 19.7345 13.617 19.8112 13.3286 19.6992C13.0401 19.5872 12.85 19.3095 12.85 19V16.2579C9.5187 16.3287 7.46578 16.8705 6.25881 17.4816C4.94126 18.1488 4.75 18.8202 4.75 19C4.75 19.4142 4.41421 19.75 4 19.75C3.58579 19.75 3.25 19.4142 3.25 19C3.25 14.5827 4.94578 11.7356 7.13598 10.0108C8.99967 8.54315 11.1743 7.92377 12.85 7.78259V5.00003Z" fill="black"/>
</svg>
