<svg width="24" height="24" viewBox="0 0 24 24" fill="none" xmlns="http://www.w3.org/2000/svg">
<path fill-rule="evenodd" clip-rule="evenodd" d="M21.5132 7.27905C22.2063 6.33956 21.4198 5.03064 20.2649 5.20152L14.9019 5.99503L11.7472 1.58596C11.0679 0.636494 9.57997 0.980004 9.38561 2.13118L8.48302 7.47694L3.31489 9.11474C2.20197 9.46742 2.06888 10.9886 3.10365 11.5292L7.90886 14.0396L7.86946 19.4609C7.86097 20.6283 9.26661 21.225 10.1005 20.4079L13.9729 16.6136L19.1166 18.3263C20.2243 18.6952 21.2261 17.5427 20.7067 16.4971L18.2948 11.6418L21.5132 7.27905ZM15.0081 7.49564L20.0385 6.75134L17.0197 10.8435C16.7275 11.2395 16.6815 11.7658 16.9005 12.2066L19.1628 16.7607L14.3381 15.1542C13.8711 14.9988 13.3564 15.1176 13.0049 15.462L9.37269 19.021L9.40965 13.936C9.41323 13.4438 9.14116 12.991 8.70493 12.7631L4.19778 10.4085L9.04533 8.87226C9.51451 8.72358 9.86107 8.3249 9.94301 7.8396L10.7896 2.82542L13.7486 6.961C14.035 7.36127 14.5213 7.56768 15.0081 7.49564Z" fill="black"/>
<path d="M6.10322 14.2494L1.81738 16.8246L2.58994 18.1104L6.87578 15.5352L6.10322 14.2494Z" fill="black"/>
</svg>
