<svg width="24" height="24" viewBox="0 0 24 24" fill="none" xmlns="http://www.w3.org/2000/svg">
<path fill-rule="evenodd" clip-rule="evenodd" d="M10.7883 3.2108C11.2367 2.13286 12.7637 2.13286 13.212 3.2108L15.294 8.21652L20.6981 8.64976C21.8619 8.74306 22.3337 10.1953 21.4471 10.9549L17.3297 14.4818L18.5877 19.7553C18.8585 20.8909 17.6232 21.7884 16.6268 21.1799L12.0002 18.354L7.37353 21.1799C6.37721 21.7884 5.14182 20.8909 5.4127 19.7553L6.67062 14.4818L2.55328 10.9549C1.66663 10.1953 2.13851 8.74306 3.30224 8.64976L8.70633 8.21652L10.7883 3.2108ZM12.0002 4.20309L10.0473 8.89831C9.85832 9.35274 9.43096 9.66324 8.94036 9.70257L3.87148 10.1089L7.73343 13.4171C8.10722 13.7373 8.27046 14.2397 8.15626 14.7184L6.97637 19.6648L11.316 17.0142C11.7361 16.7576 12.2643 16.7576 12.6843 17.0142L17.024 19.6648L15.8441 14.7184C15.7299 14.2397 15.8932 13.7373 16.2669 13.4171L20.1289 10.1089L15.06 9.70257C14.5694 9.66324 14.142 9.35274 13.953 8.89831L12.0002 4.20309Z" fill="black"/>
</svg>
