<svg width="24" height="24" viewBox="0 0 24 24" fill="none" xmlns="http://www.w3.org/2000/svg">
<path d="M20.2649 5.20152C21.4198 5.03064 22.2063 6.33956 21.5132 7.27905L18.2948 11.6418L20.7067 16.4971C21.2261 17.5427 20.2243 18.6952 19.1166 18.3263L13.9729 16.6136L10.1005 20.4079C9.26661 21.225 7.86097 20.6283 7.86946 19.4609L7.90886 14.0396L3.10365 11.5292C2.06888 10.9886 2.20197 9.46742 3.31489 9.11474L8.48302 7.47694L9.38561 2.13118C9.57997 0.980004 11.0679 0.636494 11.7472 1.58596L14.9019 5.99503L20.2649 5.20152Z" fill="black"/>
<path d="M6.10322 14.2494L1.81738 16.8246L2.58994 18.1104L6.87578 15.5352L6.10322 14.2494Z" fill="black"/>
</svg>
