<svg width="24" height="24" viewBox="0 0 24 24" fill="none" xmlns="http://www.w3.org/2000/svg">
<path fill-rule="evenodd" clip-rule="evenodd" d="M8.25 6C8.25 4.48122 9.48122 3.25 11 3.25H13C14.5188 3.25 15.75 4.48122 15.75 6V7.25H19C20.5188 7.25 21.75 8.48122 21.75 10V18C21.75 19.5188 20.5188 20.75 19 20.75H5C3.48122 20.75 2.25 19.5188 2.25 18V10C2.25 8.48122 3.48122 7.25 5 7.25H8.25V6ZM14.25 6V7.25H9.75V6C9.75 5.30964 10.3096 4.75 11 4.75H13C13.6904 4.75 14.25 5.30964 14.25 6ZM7.75 9C7.75 8.58579 7.41421 8.25 7 8.25C6.58579 8.25 6.25 8.58579 6.25 9V19C6.25 19.4142 6.58579 19.75 7 19.75C7.41421 19.75 7.75 19.4142 7.75 19V9ZM17.75 9C17.75 8.58579 17.4142 8.25 17 8.25C16.5858 8.25 16.25 8.58579 16.25 9V19C16.25 19.4142 16.5858 19.75 17 19.75C17.4142 19.75 17.75 19.4142 17.75 19V9Z" fill="black"/>
</svg>
