<svg width="24" height="24" viewBox="0 0 24 24" fill="none" xmlns="http://www.w3.org/2000/svg">
<path fill-rule="evenodd" clip-rule="evenodd" d="M8.25 6C8.25 4.48122 9.48122 3.25 11 3.25H13C14.5188 3.25 15.75 4.48122 15.75 6V7.25H19C20.5188 7.25 21.75 8.48122 21.75 10V18C21.75 19.5188 20.5188 20.75 19 20.75H5C3.48122 20.75 2.25 19.5188 2.25 18V10C2.25 8.48122 3.48122 7.25 5 7.25H8.25V6ZM9.75 7.25H14.25V6C14.25 5.30964 13.6904 4.75 13 4.75H11C10.3096 4.75 9.75 5.30964 9.75 6V7.25ZM17.75 19.25H19C19.6904 19.25 20.25 18.6904 20.25 18V10C20.25 9.30964 19.6904 8.75 19 8.75H17.75V19.25ZM16.25 8.75V19.25H7.75V8.75H16.25ZM6.25 8.75H5C4.30964 8.75 3.75 9.30964 3.75 10V18C3.75 18.6904 4.30964 19.25 5 19.25H6.25V8.75Z" fill="black"/>
</svg>
