<svg width="24" height="24" viewBox="0 0 24 24" fill="none" xmlns="http://www.w3.org/2000/svg">
<path fill-rule="evenodd" clip-rule="evenodd" d="M6.75306 1.25003L9.74705 1.25003C10.1657 1.24978 10.4952 1.24959 10.8136 1.32604C11.0942 1.3934 11.3624 1.50452 11.6085 1.6553C11.8877 1.8264 12.1206 2.05954 12.4164 2.35572L20.159 10.0983C20.7338 10.6731 21.1973 11.1367 21.5421 11.5427C21.897 11.9608 22.1698 12.3671 22.3239 12.8412C22.5686 13.5944 22.5686 14.4057 22.3239 15.1589C22.1698 15.633 21.897 16.0393 21.5421 16.4574C21.1973 16.8634 20.7338 17.327 20.159 17.9017L17.9018 20.159C17.327 20.7337 16.8634 21.1973 16.4574 21.5421C16.0393 21.897 15.633 22.1698 15.1589 22.3239C14.4057 22.5686 13.5944 22.5686 12.8412 22.3239C12.3671 22.1698 11.9608 21.897 11.5427 21.5421C11.1367 21.1973 10.6731 20.7338 10.0984 20.159L2.35571 12.4164C2.05954 12.1206 1.82639 11.8877 1.65529 11.6085C1.50452 11.3624 1.3934 11.0942 1.32604 10.8136C1.24959 10.4952 1.24978 10.1657 1.25003 9.74704L1.25003 6.75306C1.24978 6.33445 1.24959 6.00492 1.32604 5.68651C1.3934 5.40591 1.50452 5.13766 1.65529 4.89161C1.82639 4.6124 2.05954 4.37953 2.35572 4.08369L4.0837 2.35571C4.37953 2.05954 4.6124 1.82639 4.89161 1.65529C5.13766 1.50452 5.40591 1.3934 5.68651 1.32604C6.00492 1.24959 6.33445 1.24978 6.75306 1.25003ZM6.75 8C6.75 7.30964 7.30964 6.75 8 6.75C8.69036 6.75 9.25 7.30964 9.25 8C9.25 8.69036 8.69036 9.25 8 9.25C7.30964 9.25 6.75 8.69036 6.75 8Z" fill="black"/>
</svg>
