<svg width="24" height="24" viewBox="0 0 24 24" fill="none" xmlns="http://www.w3.org/2000/svg">
<path fill-rule="evenodd" clip-rule="evenodd" d="M1.5 6.375C1.5 5.33947 2.33947 4.5 3.375 4.5H20.625C21.6605 4.5 22.5 5.33947 22.5 6.375V9.40135C22.5 9.66907 22.3573 9.91649 22.1255 10.0506C21.4511 10.4407 21 11.1681 21 12C21 12.8319 21.4511 13.5593 22.1255 13.9494C22.3573 14.0835 22.5 14.3309 22.5 14.5987V17.625C22.5 18.6605 21.6605 19.5 20.625 19.5H3.375C2.33947 19.5 1.5 18.6605 1.5 17.625V14.5987C1.5 14.3309 1.64271 14.0835 1.87446 13.9494C2.54894 13.5593 3 12.8319 3 12C3 11.1681 2.54894 10.4407 1.87446 10.0506C1.64271 9.91649 1.5 9.66907 1.5 9.40135V6.375ZM3.375 6C3.16789 6 3 6.16789 3 6.375V8.99983C3.90974 9.68317 4.5 10.7723 4.5 12C4.5 13.2277 3.90974 14.3168 3 15.0002V17.625C3 17.8321 3.16789 18 3.375 18H15.75V17.25C15.75 16.8358 16.0858 16.5 16.5 16.5C16.9142 16.5 17.25 16.8358 17.25 17.25V18H20.625C20.8321 18 21 17.8321 21 17.625V15.0002C20.0903 14.3168 19.5 13.2277 19.5 12C19.5 10.7723 20.0903 9.68317 21 8.99983V6.375C21 6.16789 20.8321 6 20.625 6H17.25V6.75C17.25 7.16421 16.9142 7.5 16.5 7.5C16.0858 7.5 15.75 7.16421 15.75 6.75V6H3.375ZM16.5 9C16.9142 9 17.25 9.33579 17.25 9.75V10.5C17.25 10.9142 16.9142 11.25 16.5 11.25C16.0858 11.25 15.75 10.9142 15.75 10.5V9.75C15.75 9.33579 16.0858 9 16.5 9ZM6.75 12.75C6.75 12.3358 7.08579 12 7.5 12H12.75C13.1642 12 13.5 12.3358 13.5 12.75C13.5 13.1642 13.1642 13.5 12.75 13.5H7.5C7.08579 13.5 6.75 13.1642 6.75 12.75ZM16.5 12.75C16.9142 12.75 17.25 13.0858 17.25 13.5V14.25C17.25 14.6642 16.9142 15 16.5 15C16.0858 15 15.75 14.6642 15.75 14.25V13.5C15.75 13.0858 16.0858 12.75 16.5 12.75ZM6.75 15C6.75 14.5858 7.08579 14.25 7.5 14.25H10.5C10.9142 14.25 11.25 14.5858 11.25 15C11.25 15.4142 10.9142 15.75 10.5 15.75H7.5C7.08579 15.75 6.75 15.4142 6.75 15Z" fill="black"/>
</svg>
