<svg width="24" height="24" viewBox="0 0 24 24" fill="none" xmlns="http://www.w3.org/2000/svg">
<path d="M4.25 5C4.25 4.0473 5.01123 3.25 5.98077 3.25H21.0192C21.9888 3.25 22.75 4.0473 22.75 5V7.69009C22.75 7.95555 22.6097 8.20123 22.381 8.33609C21.8227 8.66538 21.4423 9.28441 21.4423 10C21.4423 10.7156 21.8227 11.3346 22.381 11.6639C22.6097 11.7988 22.75 12.0445 22.75 12.3099V15C22.75 15.9527 21.9888 16.75 21.0192 16.75H20C19.5858 16.75 19.25 16.4142 19.25 16C19.25 15.5858 19.5858 15.25 20 15.25H21.0192C21.133 15.25 21.25 15.1519 21.25 15V12.7038C20.4529 12.0777 19.9423 11.0974 19.9423 10C19.9423 8.90264 20.4529 7.92232 21.25 7.29622V5C21.25 4.84813 21.133 4.75 21.0192 4.75H5.98077C5.86698 4.75 5.75 4.84813 5.75 5C5.75 5.41421 5.41421 5.75 5 5.75C4.58579 5.75 4.25 5.41421 4.25 5Z" fill="black"/>
<path fill-rule="evenodd" clip-rule="evenodd" d="M3.03846 6.25C2.07765 6.25 1.25 7.00707 1.25 8V10.6901C1.25 10.9622 1.39734 11.2129 1.63502 11.3453C2.2436 11.6843 2.63462 12.3056 2.63462 13C2.63462 13.6944 2.2436 14.3157 1.63502 14.6547C1.39734 14.7871 1.25 15.0378 1.25 15.3099V18C1.25 18.9929 2.07765 19.75 3.03846 19.75H16.9615C17.9223 19.75 18.75 18.9929 18.75 18V15.3099C18.75 15.0378 18.6027 14.7871 18.365 14.6547C17.7564 14.3157 17.3654 13.6944 17.3654 13C17.3654 12.3056 17.7564 11.6843 18.365 11.3453C18.6027 11.2129 18.75 10.9622 18.75 10.6901V8C18.75 7.00708 17.9223 6.25 16.9615 6.25H3.03846ZM13.9034 7.66699C13.9034 7.25278 13.5676 6.91699 13.1534 6.91699C12.7392 6.91699 12.4034 7.25278 12.4034 7.66699V8.33366C12.4034 8.74787 12.7392 9.08366 13.1534 9.08366C13.5676 9.08366 13.9034 8.74787 13.9034 8.33366V7.66699ZM13.9034 11.0003C13.9034 10.5861 13.5676 10.2503 13.1534 10.2503C12.7392 10.2503 12.4034 10.5861 12.4034 11.0003V11.667C12.4034 12.0812 12.7392 12.417 13.1534 12.417C13.5676 12.417 13.9034 12.0812 13.9034 11.667V11.0003ZM5.8457 12.917C5.43149 12.917 5.0957 13.2528 5.0957 13.667C5.0957 14.0812 5.43149 14.417 5.8457 14.417H9.69186C10.1061 14.417 10.4419 14.0812 10.4419 13.667C10.4419 13.2528 10.1061 12.917 9.69186 12.917H5.8457ZM13.9034 14.3337C13.9034 13.9194 13.5676 13.5837 13.1534 13.5837C12.7392 13.5837 12.4034 13.9194 12.4034 14.3337V15.0003C12.4034 15.4145 12.7392 15.7503 13.1534 15.7503C13.5676 15.7503 13.9034 15.4145 13.9034 15.0003V14.3337ZM5.8457 14.917C5.43149 14.917 5.0957 15.2528 5.0957 15.667C5.0957 16.0812 5.43149 16.417 5.8457 16.417H7.61493C8.02915 16.417 8.36493 16.0812 8.36493 15.667C8.36493 15.2528 8.02915 14.917 7.61493 14.917H5.8457ZM13.9034 17.667C13.9034 17.2528 13.5676 16.917 13.1534 16.917C12.7392 16.917 12.4034 17.2528 12.4034 17.667V18.3337C12.4034 18.7479 12.7392 19.0837 13.1534 19.0837C13.5676 19.0837 13.9034 18.7479 13.9034 18.3337V17.667Z" fill="black"/>
</svg>
