<svg width="24" height="24" viewBox="0 0 24 24" fill="none" xmlns="http://www.w3.org/2000/svg">
<path fill-rule="evenodd" clip-rule="evenodd" d="M5.98077 3.25C5.01123 3.25 4.25 4.0473 4.25 5C4.25 5.41421 4.58579 5.75 5 5.75C5.41421 5.75 5.75 5.41421 5.75 5C5.75 4.84813 5.86698 4.75 5.98077 4.75H21.0192C21.133 4.75 21.25 4.84813 21.25 5V7.29622C20.4529 7.92232 19.9423 8.90264 19.9423 10C19.9423 11.0974 20.4529 12.0777 21.25 12.7038V15C21.25 15.1519 21.133 15.25 21.0192 15.25H20C19.5858 15.25 19.25 15.5858 19.25 16C19.25 16.4142 19.5858 16.75 20 16.75H21.0192C21.9888 16.75 22.75 15.9527 22.75 15V12.3099C22.75 12.0445 22.6097 11.7988 22.381 11.6639C21.8227 11.3346 21.4423 10.7156 21.4423 10C21.4423 9.28441 21.8227 8.66538 22.381 8.33609C22.6097 8.20123 22.75 7.95555 22.75 7.69009V5C22.75 4.0473 21.9888 3.25 21.0192 3.25H5.98077ZM3.03846 6.25C2.07765 6.25 1.25 7.00707 1.25 8V10.6901C1.25 10.9622 1.39734 11.2129 1.63502 11.3453C2.2436 11.6843 2.63462 12.3056 2.63462 13C2.63462 13.6944 2.2436 14.3157 1.63502 14.6547C1.39734 14.7871 1.25 15.0378 1.25 15.3099V18C1.25 18.9929 2.07765 19.75 3.03846 19.75H16.9615C17.9223 19.75 18.75 18.9929 18.75 18V15.3099C18.75 15.0378 18.6027 14.7871 18.365 14.6547C17.7564 14.3157 17.3654 13.6944 17.3654 13C17.3654 12.3056 17.7564 11.6843 18.365 11.3453C18.6027 11.2129 18.75 10.9622 18.75 10.6901V8C18.75 7.00708 17.9223 6.25 16.9615 6.25H3.03846ZM2.75 8C2.75 7.88836 2.85222 7.75 3.03846 7.75H12.4038V8.33333C12.4038 8.74755 12.7396 9.08333 13.1538 9.08333C13.5681 9.08333 13.9038 8.74755 13.9038 8.33333V7.75H16.9615C17.1478 7.75 17.25 7.88836 17.25 8V10.2835C16.4151 10.903 15.8654 11.884 15.8654 13C15.8654 14.116 16.4151 15.097 17.25 15.7165V18C17.25 18.1116 17.1478 18.25 16.9615 18.25H13.9038V17.6667C13.9038 17.2525 13.5681 16.9167 13.1538 16.9167C12.7396 16.9167 12.4038 17.2525 12.4038 17.6667V18.25H3.03846C2.85222 18.25 2.75 18.1116 2.75 18V15.7165C3.58495 15.097 4.13462 14.116 4.13462 13C4.13462 11.884 3.58495 10.903 2.75 10.2835V8ZM13.9038 11C13.9038 10.5858 13.5681 10.25 13.1538 10.25C12.7396 10.25 12.4038 10.5858 12.4038 11V11.6667C12.4038 12.0809 12.7396 12.4167 13.1538 12.4167C13.5681 12.4167 13.9038 12.0809 13.9038 11.6667V11ZM5.84615 12.9167C5.43194 12.9167 5.09615 13.2525 5.09615 13.6667C5.09615 14.0809 5.43194 14.4167 5.84615 14.4167H9.69229C10.1065 14.4167 10.4423 14.0809 10.4423 13.6667C10.4423 13.2525 10.1062 12.9167 9.69195 12.9167H5.84615ZM13.9038 14.3333C13.9038 13.9191 13.5681 13.5833 13.1538 13.5833C12.7396 13.5833 12.4038 13.9191 12.4038 14.3333V15C12.4038 15.4142 12.7396 15.75 13.1538 15.75C13.5681 15.75 13.9038 15.4142 13.9038 15V14.3333ZM5.84615 14.9167C5.43194 14.9167 5.09615 15.2525 5.09615 15.6667C5.09615 16.0809 5.43194 16.4167 5.84615 16.4167H7.61538C8.0296 16.4167 8.36539 16.0809 8.36539 15.6667C8.36539 15.2525 8.02948 14.9167 7.61526 14.9167H5.84615Z" fill="black"/>
</svg>
