<svg width="24" height="24" viewBox="0 0 24 24" fill="none" xmlns="http://www.w3.org/2000/svg">
<path fill-rule="evenodd" clip-rule="evenodd" d="M12.0001 3C11.4525 3 10.9069 3.00876 10.3635 3.02614C9.6089 3.05028 9.00012 3.68393 9.00012 4.47819V4.59082C9.99249 4.53056 10.9928 4.5 12.0001 4.5C13.0075 4.5 14.0078 4.53056 15.0001 4.59082V4.47819C15.0001 3.68393 14.3913 3.05028 13.6367 3.02614C13.0934 3.00876 12.5478 3 12.0001 3ZM16.5001 4.70498V4.47819C16.5001 2.91371 15.2876 1.57818 13.6847 1.52691C13.1253 1.50901 12.5638 1.5 12.0001 1.5C11.4365 1.5 10.8749 1.50901 10.3156 1.52691C8.71265 1.57818 7.50012 2.91371 7.50012 4.47819V4.70498C6.5454 4.79237 5.59858 4.90731 4.66048 5.04898C4.31315 5.10143 3.96701 5.15755 3.62211 5.2173C3.21398 5.28799 2.94043 5.67617 3.01113 6.0843C3.08183 6.49244 3.47 6.76598 3.87813 6.69529C3.94774 6.68323 4.0174 6.67132 4.0871 6.65957L5.09253 19.7301C5.21276 21.2931 6.51608 22.5 8.08369 22.5H15.9166C17.4842 22.5 18.7875 21.2931 18.9077 19.7301L19.9131 6.65957C19.9829 6.67132 20.0525 6.68323 20.1221 6.69529C20.5302 6.76598 20.9184 6.49244 20.9891 6.0843C21.0598 5.67617 20.7863 5.28799 20.3781 5.2173C20.0332 5.15755 19.6871 5.10143 19.3398 5.04898C18.4017 4.90731 17.4549 4.79237 16.5001 4.70498ZM18.4261 6.43321C17.5228 6.3104 16.6113 6.21311 15.6923 6.14209C14.4741 6.04796 13.2428 6 12.0001 6C10.7575 6 9.52614 6.04796 8.30791 6.14209C7.38898 6.21311 6.47747 6.3104 5.57412 6.43321L6.58811 19.615C6.64823 20.3965 7.29989 21 8.08369 21H15.9166C16.7004 21 17.352 20.3965 17.4121 19.615L18.4261 6.43321ZM9.23091 8.25055C9.64482 8.23463 9.99326 8.55727 10.0092 8.97118L10.3553 17.9712C10.3713 18.3851 10.0486 18.7335 9.63472 18.7494C9.22081 18.7654 8.87237 18.4427 8.85645 18.0288L8.51029 9.02882C8.49437 8.61492 8.81701 8.26647 9.23091 8.25055ZM14.7693 8.25055C15.1832 8.26647 15.5059 8.61492 15.49 9.02882L15.1438 18.0288C15.1279 18.4427 14.7794 18.7654 14.3655 18.7494C13.9516 18.7335 13.629 18.3851 13.6449 17.9712L13.9911 8.97118C14.007 8.55727 14.3554 8.23463 14.7693 8.25055Z" fill="black"/>
</svg>
