<svg width="24" height="24" viewBox="0 0 24 24" fill="none" xmlns="http://www.w3.org/2000/svg">
<path fill-rule="evenodd" clip-rule="evenodd" d="M14.8685 3.3693C14.6814 3.43577 14.4347 3.5488 14.0439 3.72917L6.41485 7.25028L15.2501 7.25028V4.50093C15.2501 4.07053 15.2494 3.79919 15.2313 3.60147C15.2202 3.47938 15.2051 3.42765 15.2002 3.41332C15.164 3.36494 15.1114 3.33132 15.0523 3.3187C15.0373 3.3203 14.984 3.32826 14.8685 3.3693ZM16.7501 7.25028L16.7501 4.46809C16.7501 4.08036 16.7502 3.73941 16.7251 3.46509C16.6993 3.18286 16.6401 2.8605 16.4435 2.57367C16.1756 2.18291 15.7608 1.91746 15.2937 1.83799C14.9509 1.77965 14.6334 1.86098 14.3663 1.95585C14.1068 2.04807 13.7972 2.19096 13.4451 2.35347L4.54484 6.4613C4.51044 6.47718 4.47647 6.49282 4.44291 6.50828C3.86949 6.77234 3.41933 6.97965 3.07802 7.31321C2.7782 7.60623 2.54935 7.96391 2.40894 8.35892C2.24911 8.8086 2.24953 9.3042 2.25006 9.9355C2.25009 9.97244 2.25012 10.0098 2.25012 10.0477V11.1095C2.25012 11.1295 2.25012 11.1496 2.25012 11.1698L2.25012 17.8307C2.25011 18.3649 2.2501 18.8107 2.27986 19.1749C2.3109 19.5548 2.37801 19.9115 2.54986 20.2487C2.81351 20.7662 3.2342 21.1869 3.75165 21.4505C4.08891 21.6224 4.44557 21.6895 4.82545 21.7205C5.18968 21.7503 5.63552 21.7503 6.16967 21.7503H17.8306C18.3647 21.7503 18.8106 21.7503 19.1748 21.7205C19.5547 21.6895 19.9113 21.6224 20.2486 21.4505C20.766 21.1869 21.1867 20.7662 21.4504 20.2487C21.6222 19.9115 21.6893 19.5548 21.7204 19.1749C21.7501 18.8107 21.7501 18.3649 21.7501 17.8307V11.1698C21.7501 10.6357 21.7501 10.1898 21.7204 9.82561C21.6893 9.44572 21.6222 9.08907 21.4504 8.7518C21.1867 8.23436 20.766 7.81366 20.2486 7.55001C19.9113 7.37817 19.5547 7.31106 19.1748 7.28002C18.8106 7.25026 18.3647 7.25027 17.8306 7.25028H16.7501ZM6.20012 8.75028C5.6277 8.75028 5.24348 8.75086 4.9476 8.77503C4.66048 8.79849 4.5232 8.84038 4.43264 8.88652C4.19743 9.00636 4.00621 9.19759 3.88637 9.43279C3.84022 9.52335 3.79834 9.66063 3.77488 9.94775C3.75084 10.242 3.75013 10.6235 3.75012 11.1906C3.75012 11.1938 3.75012 11.1971 3.75012 11.2003L3.75012 15.0003C3.75012 15.0001 3.75012 15.0004 3.75012 15.0003L3.75012 17.8003C3.75012 18.3727 3.75071 18.7569 3.77488 19.0528C3.79834 19.3399 3.84022 19.4772 3.88637 19.5678C4.00621 19.803 4.19743 19.9942 4.43264 20.114C4.5232 20.1602 4.66048 20.2021 4.9476 20.2255C5.24348 20.2497 5.6277 20.2503 6.20012 20.2503H17.8001C18.3726 20.2503 18.7568 20.2497 19.0526 20.2255C19.3398 20.2021 19.4771 20.1602 19.5676 20.114C19.8028 19.9942 19.994 19.803 20.1139 19.5678C20.16 19.4772 20.2019 19.3399 20.2254 19.0528C20.2495 18.7569 20.2501 18.3727 20.2501 17.8003V11.2003C20.2501 10.6279 20.2495 10.2436 20.2254 9.94776C20.2019 9.66063 20.16 9.52335 20.1139 9.43279C19.994 9.19759 19.8028 9.00636 19.5676 8.88652C19.4771 8.84038 19.3398 8.79849 19.0526 8.77504C18.7568 8.75086 18.3726 8.75028 17.8001 8.75028L6.20012 8.75028ZM15.2501 14.5003C15.2501 13.8099 15.8098 13.2503 16.5001 13.2503C17.1905 13.2503 17.7501 13.8099 17.7501 14.5003C17.7501 15.1906 17.1905 15.7503 16.5001 15.7503C15.8098 15.7503 15.2501 15.1906 15.2501 14.5003Z" fill="black"/>
</svg>
