<svg width="24" height="24" viewBox="0 0 24 24" fill="none" xmlns="http://www.w3.org/2000/svg">
<path fill-rule="evenodd" clip-rule="evenodd" d="M16.7501 4.46809L16.7501 7.25028H17.8306C18.3647 7.25027 18.8106 7.25026 19.1748 7.28002C19.5547 7.31106 19.9113 7.37817 20.2486 7.55001C20.766 7.81366 21.1867 8.23436 21.4504 8.75181C21.6222 9.08907 21.6893 9.44572 21.7204 9.82561C21.7501 10.1898 21.7501 10.6357 21.7501 11.1698V17.8307C21.7501 18.3649 21.7501 18.8107 21.7204 19.1749C21.6893 19.5548 21.6222 19.9115 21.4504 20.2488C21.1867 20.7662 20.766 21.1869 20.2486 21.4505C19.9113 21.6224 19.5547 21.6895 19.1748 21.7205C18.8106 21.7503 18.3647 21.7503 17.8306 21.7503H6.16967C5.63552 21.7503 5.18968 21.7503 4.82545 21.7205C4.44557 21.6895 4.08891 21.6224 3.75165 21.4505C3.2342 21.1869 2.81351 20.7662 2.54986 20.2487C2.37801 19.9115 2.3109 19.5548 2.27986 19.1749C2.2501 18.8107 2.25011 18.3649 2.25012 17.8307L2.25006 9.9355C2.24953 9.3042 2.24911 8.8086 2.40894 8.35892C2.54935 7.96391 2.7782 7.60623 3.07802 7.31321C3.41933 6.97965 3.86949 6.77234 4.44291 6.50828L13.4451 2.35347C13.7972 2.19096 14.1068 2.04807 14.3663 1.95585C14.6334 1.86098 14.9509 1.77965 15.2937 1.83799C15.7608 1.91746 16.1756 2.18291 16.4435 2.57367C16.6401 2.8605 16.6993 3.18286 16.7251 3.46509C16.7502 3.7394 16.7501 4.08038 16.7501 4.46809ZM14.0439 3.72917C14.4347 3.5488 14.6814 3.43577 14.8685 3.3693C14.984 3.32826 15.0373 3.3203 15.0523 3.3187C15.1114 3.33132 15.164 3.36494 15.2002 3.41332C15.2051 3.42765 15.2202 3.47938 15.2313 3.60147C15.2494 3.79919 15.2501 4.07053 15.2501 4.50093V7.25028L6.41485 7.25028L14.0439 3.72917ZM15.25 14.5C15.25 13.8096 15.8096 13.25 16.5 13.25C17.1904 13.25 17.75 13.8096 17.75 14.5C17.75 15.1904 17.1904 15.75 16.5 15.75C15.8096 15.75 15.25 15.1904 15.25 14.5Z" fill="black"/>
</svg>
