<svg width="24" height="24" viewBox="0 0 24 24" fill="none" xmlns="http://www.w3.org/2000/svg">
<path d="M3.10824 6.00809C3.41696 5.81829 3.73223 5.63807 4.05364 5.46784L2.29291 3.70711C1.90238 3.31658 1.90238 2.68342 2.29291 2.29289C2.68343 1.90237 3.31659 1.90237 3.70712 2.29289L21.7071 20.2929C22.0488 20.6346 22.0915 21.1621 21.8353 21.5502C21.7986 21.6057 21.7559 21.6583 21.7071 21.7071C21.3654 22.0488 20.8379 22.0915 20.4498 21.8352C20.3943 21.7986 20.3417 21.7559 20.2929 21.7071L15.2599 16.6741C15.2056 16.6475 15.153 16.6157 15.1028 16.5784C15.0956 16.5731 15.0885 16.5677 15.0814 16.5621C14.871 16.3972 14.6472 16.2489 14.4119 16.1189C14.3962 16.1103 14.3804 16.1017 14.3646 16.0932C13.6868 15.7303 12.9323 15.5276 12.1596 15.5037C12.108 15.5021 12.0565 15.5013 12.0048 15.5013C11.0967 15.5013 10.2084 15.7485 9.43372 16.213C9.32305 16.2793 9.21471 16.3501 9.10896 16.4252C9.08549 16.4419 9.06155 16.4574 9.0372 16.4718C8.98397 16.511 8.93154 16.5513 8.87994 16.5926C8.50253 16.8944 7.97356 16.8785 7.61614 16.5808C7.56508 16.5383 7.51752 16.4901 7.4744 16.4361C7.12947 16.0048 7.19949 15.3755 7.63082 15.0306C8.82805 14.0732 10.3484 13.5 11.9999 13.5C12.0287 13.5 12.0575 13.5002 12.0863 13.5005L9.4212 10.8354C8.09738 11.1877 6.88085 11.8051 5.83201 12.6282C5.68218 12.7458 5.53577 12.8675 5.39295 12.9933C5.03033 13.3128 4.50121 13.3221 4.13003 13.0418C4.077 13.0017 4.0272 12.9558 3.98156 12.904C3.6165 12.4896 3.65651 11.8577 4.07093 11.4926C5.16467 10.5291 6.43614 9.76118 7.83032 9.24452L5.54268 6.95688C4.86896 7.27872 4.22288 7.64943 3.60906 8.06447C2.99524 8.47951 2.41368 8.93888 1.86897 9.43803C1.83706 9.46727 1.80376 9.49405 1.76931 9.51838C1.47411 9.72688 1.09439 9.75537 0.777013 9.61025C0.658877 9.55623 0.549381 9.47816 0.4561 9.37636C0.0829746 8.96918 0.110582 8.33662 0.517762 7.9635C1.08292 7.44561 1.68329 6.96537 2.31493 6.5268C2.57419 6.34679 2.83872 6.17379 3.10824 6.00809Z" fill="black"/>
<path d="M10.5196 5.57581C11.0096 5.52723 11.5036 5.50262 11.9999 5.50262C12.2282 5.50262 12.456 5.50783 12.6831 5.51818C16.0899 5.67341 19.3501 6.98605 21.9187 9.25014C21.9705 9.29579 22.0257 9.33511 22.0833 9.36816C22.4868 9.59953 23.0105 9.52374 23.3301 9.16122C23.3757 9.10944 23.4151 9.05425 23.4481 8.99661C23.6795 8.59311 23.6037 8.06936 23.2412 7.74981C20.1361 5.01277 16.1391 3.50262 11.9999 3.50262C11.4375 3.50262 10.8776 3.53051 10.3223 3.58557C10.243 3.59344 10.1637 3.60186 10.0846 3.61083C9.5358 3.67305 9.14137 4.16835 9.20359 4.71712C9.21137 4.78572 9.22591 4.8519 9.24648 4.91508C9.39047 5.35736 9.82971 5.65254 10.3099 5.5981C10.3797 5.59018 10.4496 5.58275 10.5196 5.57581Z" fill="black"/>
<path d="M15.6094 9.04528C15.0821 8.881 14.5215 9.17528 14.3572 9.70256C14.1929 10.2298 14.4872 10.7905 15.0145 10.9548C15.0922 10.979 15.1697 11.0041 15.2468 11.0303C16.4036 11.4219 17.4875 12.025 18.44 12.8184C18.4931 12.8626 18.5493 12.9003 18.6079 12.9318C19.0177 13.1517 19.5391 13.0613 19.8484 12.69C19.8926 12.637 19.9303 12.5807 19.9618 12.5222C20.1817 12.1123 20.0913 11.5909 19.72 11.2816C18.5008 10.2661 17.1021 9.51034 15.6094 9.04528Z" fill="black"/>
<path d="M12 18.5C11.4477 18.5 11 18.9477 11 19.5C11 20.0523 11.4477 20.5 12 20.5H12.01C12.0445 20.5 12.0786 20.4983 12.1123 20.4948C12.6165 20.4436 13.01 20.0178 13.01 19.5C13.01 18.9477 12.5623 18.5 12.01 18.5H12Z" fill="black"/>
</svg>
